<?xml version="1.0" standalone="no"?>
<!DOCTYPE svg PUBLIC "-//W3C//DTD SVG 20010904//EN"
 "http://www.w3.org/TR/2001/REC-SVG-20010904/DTD/svg10.dtd">
<svg version="1.0" xmlns="http://www.w3.org/2000/svg"
 width="656.000000pt" height="656.000000pt" viewBox="0 0 656.000000 656.000000"
 preserveAspectRatio="xMidYMid meet">
<metadata>
Created by potrace 1.14, written by Peter Selinger 2001-2017
</metadata>
<g transform="translate(0.000000,656.000000) scale(0.100000,-0.100000)"
fill="#000000" stroke="none">
<path d="M6360 6320 l185 -5 5 -220 6 -220 2 228 2 227 -192 -2 -193 -2 185
-6z"/>
<path d="M6551 5854 c0 -11 3 -14 6 -6 3 7 2 16 -1 19 -3 4 -6 -2 -5 -13z"/>
<path d="M1470 5533 c-194 -31 -307 -72 -429 -154 -165 -111 -248 -213 -324
-399 -34 -84 -47 -151 -53 -280 -5 -97 -3 -113 26 -209 52 -172 108 -266 239
-399 96 -96 95 -90 31 -233 -89 -199 -150 -418 -165 -595 -13 -148 -12 -478 2
-529 7 -27 25 -104 39 -170 40 -184 61 -235 213 -530 28 -55 79 -135 111 -177
33 -42 60 -81 60 -87 0 -10 226 -241 310 -317 79 -71 196 -160 261 -199 35
-21 92 -58 127 -83 103 -72 442 -217 582 -249 354 -80 528 -107 690 -108 344
-1 719 66 1017 181 177 68 483 229 583 306 14 11 57 43 96 71 83 61 169 134
234 197 41 41 80 89 203 254 41 54 119 191 185 321 92 180 167 406 187 560 4
28 9 61 11 75 3 14 6 106 8 205 3 174 -11 351 -35 460 -20 93 -73 270 -81 273
-4 2 -6 8 -2 13 3 5 1 9 -5 9 -6 0 -8 6 -6 13 3 6 -7 39 -21 72 -14 33 -28 68
-31 78 -3 9 -9 17 -14 17 -5 0 -9 6 -9 14 0 7 -7 19 -16 26 -37 31 -35 46 10
78 143 103 283 311 306 455 35 224 14 411 -65 568 -65 127 -137 212 -255 298
-30 22 -59 44 -65 48 -27 22 -160 74 -240 95 -73 18 -114 23 -220 22 -182 -2
-245 -20 -451 -128 -83 -44 -257 -224 -273 -282 -13 -48 -36 -55 -121 -32 -41
11 -102 30 -135 43 -76 31 -260 71 -403 88 -166 20 -593 15 -731 -9 -184 -33
-440 -96 -474 -119 -13 -8 -40 -12 -67 -10 -35 3 -50 10 -67 32 -13 15 -23 33
-23 39 0 34 -183 201 -285 260 -27 15 -55 34 -62 40 -7 6 -29 15 -50 19 -20 4
-49 13 -63 20 -14 7 -73 20 -130 28 -58 8 -112 17 -120 20 -8 2 -26 2 -40 0z"/>
<path d="M6551 3254 c0 -11 3 -14 6 -6 3 7 2 16 -1 19 -3 4 -6 -2 -5 -13z"/>
</g>
</svg>
