<?xml version="1.0" standalone="no"?>
<!DOCTYPE svg PUBLIC "-//W3C//DTD SVG 20010904//EN"
 "http://www.w3.org/TR/2001/REC-SVG-20010904/DTD/svg10.dtd">
<svg version="1.0" xmlns="http://www.w3.org/2000/svg"
 width="4032.000000pt" height="4032.000000pt" viewBox="0 0 4032.000000 4032.000000"
 preserveAspectRatio="xMidYMid meet">
<metadata>
Created by potrace 1.14, written by Peter Selinger 2001-2017
</metadata>
<g transform="translate(0.000000,4032.000000) scale(0.100000,-0.100000)"
fill="#000000" stroke="none">
<path d="M22410 39444 c0 -5 7 -18 15 -28 12 -16 15 -17 15 -4 0 8 -7 21 -15
28 -8 7 -15 9 -15 4z"/>
<path d="M22452 39350 c0 -14 2 -19 5 -12 2 6 2 18 0 25 -3 6 -5 1 -5 -13z"/>
<path d="M21017 39314 c-14 -14 -7 -25 13 -22 12 2 21 8 21 13 0 12 -24 18
-34 9z"/>
<path d="M28935 35999 c-42 -6 -30 -12 18 -9 15 1 33 -3 40 -8 13 -10 65 4 54
15 -9 9 -65 10 -112 2z"/>
<path d="M22875 34680 c-11 -5 -47 -9 -81 -9 -42 -1 -91 -12 -160 -36 -68 -24
-117 -35 -156 -35 -31 0 -59 -4 -63 -9 -6 -11 -84 -28 -165 -36 -59 -7 -107
-21 -183 -55 -27 -12 -66 -23 -88 -25 -22 -1 -53 -13 -71 -27 -83 -62 -353
-202 -414 -214 -38 -7 -52 -19 -97 -81 -21 -28 -58 -69 -84 -90 -25 -21 -51
-43 -57 -48 -6 -6 -32 -26 -58 -43 -26 -18 -53 -42 -59 -53 -7 -15 -19 -20
-42 -19 -18 1 -37 2 -44 1 -6 -1 -34 -36 -62 -78 -71 -109 -64 -103 -122 -97
l-50 6 14 -29 c9 -16 17 -51 18 -77 3 -47 1 -52 -51 -108 -30 -32 -73 -79 -95
-103 -23 -24 -47 -55 -55 -69 -7 -15 -24 -29 -37 -32 -13 -4 -36 -23 -53 -43
-16 -21 -51 -49 -77 -62 -26 -13 -50 -25 -52 -27 -3 -1 5 -9 17 -18 19 -13 20
-18 11 -37 -7 -12 -23 -32 -36 -44 -12 -12 -23 -32 -23 -45 0 -37 -36 -88 -62
-88 -13 0 -28 -4 -35 -8 -13 -8 -45 -113 -48 -156 -1 -16 -9 -33 -18 -38 -10
-5 -17 -16 -17 -24 0 -8 -11 -26 -25 -40 -14 -14 -42 -67 -61 -117 -20 -51
-44 -109 -53 -129 -16 -36 -45 -58 -78 -58 -13 0 -14 -3 -5 -12 19 -19 15 -43
-24 -136 -52 -124 -51 -120 -70 -194 -9 -37 -23 -69 -30 -72 -7 -3 -20 -21
-28 -41 -8 -19 -19 -35 -24 -35 -5 0 -19 -44 -31 -97 -13 -54 -29 -110 -37
-125 -8 -14 -14 -37 -14 -50 0 -13 -9 -42 -20 -63 -12 -22 -19 -48 -16 -59 3
-10 1 -28 -4 -40 -4 -11 -13 -50 -20 -86 -6 -36 -23 -85 -37 -110 -19 -34 -26
-62 -29 -117 -2 -40 -10 -86 -19 -102 -8 -17 -15 -39 -15 -50 0 -18 -23 -39
-43 -39 -13 0 -22 -12 -10 -12 19 0 24 -77 9 -115 -8 -19 -16 -68 -17 -107 -1
-40 -10 -102 -20 -137 -10 -35 -16 -68 -13 -73 11 -17 -6 -76 -33 -114 -30
-45 -48 -113 -57 -218 -7 -72 -17 -130 -28 -153 -8 -16 -7 -30 2 -52 11 -27
10 -35 -6 -58 -23 -34 -26 -53 -28 -173 0 -54 -6 -104 -13 -116 -7 -12 -10
-24 -6 -27 3 -4 7 -36 8 -73 1 -36 8 -71 14 -77 6 -6 11 -18 11 -26 0 -11 -4
-10 -15 5 -13 17 -15 12 -17 -56 -1 -41 -1 -88 0 -103 1 -16 -4 -37 -12 -49
-8 -11 -12 -27 -9 -34 3 -8 0 -14 -7 -14 -8 0 -10 -9 -6 -24 4 -17 2 -25 -9
-28 -13 -2 -11 -12 11 -52 25 -47 26 -53 20 -160 -14 -240 -16 -254 -62 -309
-19 -23 -24 -40 -24 -87 0 -32 -4 -61 -9 -64 -5 -3 -7 -15 -4 -26 4 -15 1 -19
-9 -15 -9 4 -34 -18 -68 -57 -30 -35 -67 -75 -82 -90 -16 -14 -28 -31 -28 -38
0 -7 -18 -33 -40 -58 -23 -25 -50 -63 -62 -84 -12 -21 -25 -38 -30 -38 -4 0
-5 -6 -3 -12 6 -16 -31 -78 -45 -78 -6 0 -8 -5 -5 -10 4 -6 -5 -26 -20 -46
-17 -23 -24 -41 -20 -54 5 -17 1 -21 -24 -26 -32 -7 -43 -24 -16 -24 18 0 19
-6 4 -23 -9 -11 -18 -23 -58 -87 -6 -8 -13 -31 -16 -51 -3 -20 -20 -56 -38
-80 -38 -51 -60 -102 -59 -141 0 -16 -4 -28 -8 -28 -9 0 -18 -49 -26 -140 -4
-40 -11 -69 -20 -77 -13 -9 -13 -15 -2 -33 11 -18 11 -22 -4 -31 -24 -13 -23
-56 3 -98 26 -42 117 -132 132 -130 7 1 27 1 46 0 29 -1 33 -4 28 -23 -8 -28
51 -88 86 -88 13 0 37 -10 52 -22 26 -20 37 -22 115 -17 14 1 35 -1 47 -4 20
-5 278 75 293 90 3 3 -5 2 -17 -1 -23 -7 -41 8 -22 19 6 4 29 8 52 10 23 2 56
10 72 19 17 9 36 16 43 16 6 0 12 6 12 14 0 22 17 28 38 15 15 -10 27 -7 66
16 26 15 48 26 49 24 34 -62 36 -70 27 -126 -5 -32 -11 -125 -15 -208 -3 -82
-8 -176 -11 -207 -3 -49 -1 -59 15 -67 17 -9 18 -15 8 -52 -7 -31 -7 -59 2
-105 7 -35 10 -86 7 -114 -5 -44 -3 -55 19 -84 14 -18 25 -39 25 -47 0 -8 5
-20 11 -26 14 -14 27 -72 35 -148 4 -33 13 -76 21 -95 7 -19 16 -59 19 -90 4
-30 13 -60 21 -67 8 -6 16 -29 18 -51 2 -22 8 -57 13 -78 6 -22 18 -77 27
-124 23 -115 48 -203 79 -275 14 -33 26 -68 26 -77 0 -10 11 -43 25 -74 14
-32 25 -71 23 -88 -1 -17 8 -50 20 -73 13 -24 25 -63 29 -88 3 -25 10 -48 14
-51 5 -3 9 -14 9 -26 0 -12 8 -22 21 -25 17 -5 20 -11 15 -34 -4 -22 -1 -31
14 -39 11 -6 23 -22 26 -36 4 -14 17 -37 30 -51 13 -14 24 -32 24 -40 0 -19
45 -106 87 -170 19 -29 32 -57 28 -63 -4 -6 6 -26 22 -45 62 -75 79 -98 98
-133 13 -24 29 -38 45 -41 14 -1 38 -12 53 -23 22 -16 27 -26 23 -44 -3 -12
-1 -26 5 -29 6 -4 8 -17 5 -29 -5 -19 -1 -22 26 -24 49 -4 95 -31 112 -65 12
-25 31 -39 85 -62 39 -16 71 -36 71 -44 0 -10 9 -12 35 -7 28 6 41 2 69 -19
18 -14 41 -25 51 -25 10 0 26 -7 36 -16 14 -13 47 -17 151 -21 73 -2 140 -7
148 -11 8 -3 31 -7 50 -8 19 -1 69 -7 110 -14 47 -7 115 -8 180 -3 58 4 124 6
148 6 23 -1 42 3 42 8 0 5 -6 9 -12 9 -9 1 -8 4 2 9 8 5 39 5 68 2 28 -4 52
-4 52 0 0 15 101 49 175 58 67 8 82 14 97 35 11 14 41 32 68 41 28 9 53 23 58
30 4 8 25 15 47 17 22 1 55 11 73 21 24 15 36 17 44 9 18 -18 29 -195 13 -206
-9 -7 -9 -15 1 -36 8 -15 17 -59 20 -98 6 -61 4 -73 -10 -78 -9 -3 -16 -10
-16 -16 0 -5 5 -6 10 -3 12 7 33 -42 24 -56 -3 -6 0 -16 6 -24 10 -12 8 -24
-9 -57 -17 -35 -18 -44 -7 -46 10 -2 13 -14 9 -40 -6 -54 -6 -52 0 -117 15
-143 22 -233 21 -275 0 -25 5 -50 12 -57 13 -14 41 -124 50 -198 3 -27 17 -74
30 -104 25 -56 31 -91 14 -91 -17 0 -11 -18 9 -25 23 -7 40 -118 20 -141 -9
-11 -7 -14 14 -14 19 0 25 -4 21 -15 -4 -8 1 -30 10 -49 9 -19 17 -60 17 -93
1 -37 7 -64 17 -75 14 -16 13 -20 -2 -37 -15 -17 -15 -20 -1 -34 24 -25 30
-74 12 -110 -9 -18 -18 -40 -21 -49 -4 -13 -16 -18 -40 -18 -19 0 -36 -4 -38
-8 -4 -10 -226 -82 -250 -82 -10 0 -18 -5 -18 -11 0 -5 -17 -17 -37 -25 -21
-8 -73 -33 -116 -55 -43 -21 -87 -39 -98 -39 -12 0 -19 -7 -19 -19 0 -11 -8
-22 -18 -25 -10 -4 -36 -24 -58 -46 -22 -21 -52 -44 -67 -49 -19 -8 -27 -17
-27 -36 0 -14 -6 -25 -13 -25 -7 0 -28 -13 -47 -30 -19 -16 -40 -29 -47 -30
-6 0 -21 -13 -33 -30 -12 -16 -28 -30 -35 -30 -8 0 -17 -9 -20 -20 -4 -13 -15
-20 -31 -20 -15 0 -23 -4 -19 -11 9 -13 -28 -53 -75 -82 -19 -11 -39 -27 -43
-34 -4 -7 -13 -13 -19 -13 -16 0 -210 -151 -282 -219 -65 -63 -128 -135 -136
-156 -6 -15 -13 -25 -17 -22 -7 8 -43 -62 -43 -84 0 -9 -10 -19 -23 -23 -21
-5 -42 -30 -112 -141 -11 -17 -32 -46 -46 -65 -15 -19 -36 -54 -48 -78 -12
-24 -33 -52 -46 -64 -14 -12 -28 -40 -34 -70 -12 -52 -34 -102 -58 -130 -9
-10 -13 -24 -10 -31 3 -8 -12 -51 -34 -96 -21 -45 -39 -87 -39 -93 0 -6 -25
-57 -55 -113 -30 -57 -55 -110 -55 -119 0 -8 -9 -20 -21 -26 -15 -8 -18 -15
-10 -24 13 -15 -19 -113 -40 -127 -8 -4 -15 -19 -16 -31 -1 -24 -27 -102 -42
-129 -5 -9 -13 -33 -17 -54 -3 -20 -13 -39 -20 -42 -8 -3 -14 -20 -14 -42 0
-20 -19 -88 -41 -151 -22 -63 -49 -151 -59 -195 -10 -44 -25 -97 -34 -117 -9
-21 -16 -49 -16 -63 0 -14 -4 -25 -8 -25 -5 0 -9 -12 -10 -27 -1 -36 -28 -100
-44 -106 -8 -3 -5 -6 6 -6 15 -1 17 -6 11 -28 -3 -15 -10 -30 -15 -33 -5 -3
-14 -27 -20 -54 -13 -58 -36 -106 -52 -106 -7 0 -3 -6 7 -14 18 -13 19 -18 7
-58 -16 -53 -61 -225 -66 -253 -2 -11 -11 -42 -19 -70 -9 -27 -18 -79 -22
-115 -4 -36 -14 -94 -22 -130 -28 -117 -46 -210 -66 -340 -8 -52 -18 -103 -22
-113 -4 -9 -2 -24 4 -31 8 -9 9 -21 3 -33 -5 -10 -16 -33 -25 -50 -14 -29 -14
-33 -1 -33 8 0 12 -5 8 -11 -3 -6 -8 -46 -9 -90 -2 -43 -8 -94 -14 -111 -5
-18 -13 -60 -16 -93 -4 -32 -8 -62 -10 -65 -2 -4 -7 -29 -11 -56 -3 -27 -8
-52 -10 -56 -5 -8 -17 -128 -18 -185 -1 -35 -5 -43 -20 -43 -15 0 -17 -5 -11
-27 9 -36 8 -136 -1 -198 -8 -52 -9 -72 -6 -165 2 -30 0 -104 -2 -165 -5 -106
-6 -248 -4 -310 1 -16 -2 -68 -6 -115 -4 -47 -9 -112 -11 -145 -1 -33 -5 -90
-9 -127 -7 -66 -7 -66 16 -60 21 5 22 4 9 -11 -7 -9 -20 -17 -27 -17 -23 0
-19 -87 5 -102 19 -12 19 -13 -5 -35 -31 -29 -29 -67 4 -71 27 -4 28 -9 0 -31
-18 -15 -22 -31 -26 -100 -2 -45 -9 -84 -13 -87 -16 -9 -10 -43 9 -55 17 -11
18 -16 5 -68 -13 -53 -19 -253 -8 -270 2 -5 -2 -14 -10 -21 -14 -12 -13 -16 6
-36 13 -14 18 -27 13 -36 -13 -21 -11 -140 4 -176 7 -18 19 -35 27 -39 28 -10
15 -23 -22 -23 -28 0 -34 -3 -23 -10 12 -7 15 -28 14 -92 -4 -178 -10 -262
-22 -266 -9 -3 -9 -9 0 -25 7 -13 13 -66 13 -127 2 -128 15 -396 21 -430 3
-14 7 -81 10 -150 3 -69 10 -141 15 -160 5 -19 9 -52 9 -73 0 -21 4 -46 9 -55
8 -16 11 -42 27 -202 10 -114 13 -137 23 -195 5 -33 12 -105 16 -160 3 -55 10
-116 15 -135 5 -19 12 -82 15 -140 7 -137 14 -191 30 -253 7 -29 12 -63 10
-77 -1 -14 2 -38 6 -53 4 -15 9 -67 10 -114 1 -48 6 -103 10 -122 5 -20 11
-76 15 -126 3 -49 12 -101 19 -115 7 -14 9 -36 5 -50 -8 -31 -6 -105 5 -185 5
-33 7 -64 6 -69 -1 -5 5 -36 13 -70 8 -34 17 -79 19 -101 20 -163 39 -208 102
-236 26 -12 43 -15 51 -8 8 6 14 5 18 -6 6 -16 46 -20 62 -6 5 5 29 16 54 24
40 13 46 19 53 53 4 20 12 43 18 50 14 17 19 53 8 59 -5 4 -9 24 -9 46 0 22
-6 50 -14 62 -9 13 -16 52 -17 96 -1 41 -6 93 -11 115 -5 23 -12 84 -17 136
-5 52 -19 165 -30 250 -11 85 -23 198 -27 250 -4 52 -11 105 -15 118 -5 13 -9
42 -9 66 0 23 -9 59 -20 81 -11 22 -20 47 -20 57 0 9 -5 29 -12 43 -10 21 -9
31 5 54 17 29 17 101 0 211 -4 25 -6 73 -4 107 1 35 -3 71 -9 80 -8 14 -10 6
-8 -34 1 -50 -5 -73 -17 -61 -3 3 -6 31 -7 63 -1 45 2 59 16 67 12 7 14 13 7
22 -6 7 -10 39 -9 72 1 32 -1 75 -5 94 -3 19 -11 73 -17 120 -6 47 -15 86 -19
88 -4 1 -3 27 3 58 7 39 6 64 -2 87 -6 18 -16 73 -22 124 -11 98 -17 124 -34
135 -8 5 -7 14 2 29 9 13 11 32 6 52 -4 18 -8 57 -9 87 -1 30 -5 136 -10 236
-6 136 -5 186 4 203 9 16 10 30 2 49 -5 15 -12 54 -15 87 -3 33 -5 65 -6 70 0
6 -7 -3 -15 -20 l-13 -30 -1 28 c-1 18 -6 27 -17 27 -27 0 -9 25 21 30 24 4
30 12 37 44 5 22 13 46 20 53 8 10 6 19 -10 36 -19 20 -20 28 -12 57 6 19 10
52 10 72 0 20 5 40 10 43 6 4 7 13 1 24 -12 22 -19 206 -11 288 l5 60 -27 -11
c-15 -5 -31 -6 -35 -2 -4 5 -2 11 5 13 28 10 42 36 42 78 0 25 5 45 13 48 7 3
5 6 -6 6 -15 1 -16 9 -11 84 4 55 3 91 -5 105 -8 15 -8 23 0 28 8 4 10 26 6
61 -5 51 -1 72 26 130 6 14 6 31 -1 51 -5 16 -8 56 -5 88 2 33 5 88 6 124 1
36 5 70 9 76 5 7 1 14 -7 18 -18 6 -13 35 16 102 11 23 16 51 13 65 -9 39 -5
296 6 324 7 20 6 25 -5 25 -16 0 -20 12 -8 24 4 4 8 52 8 107 0 69 5 103 13
108 10 6 10 11 -3 21 -18 15 -20 41 -3 58 6 6 10 35 9 67 -2 53 -1 55 23 55
28 0 35 14 12 23 -20 8 -26 112 -10 177 20 87 25 200 8 207 -21 8 -17 23 6 23
16 0 20 7 20 34 0 18 7 50 15 70 14 34 14 36 -5 48 -23 15 -27 38 -6 38 27 0
37 26 27 70 -8 35 -6 52 10 92 11 27 17 54 13 59 -3 5 0 42 7 82 6 39 13 104
14 144 1 46 8 81 18 96 11 17 14 36 10 61 -5 34 -4 36 21 36 30 0 33 8 10 25
-14 10 -15 19 -5 66 6 30 13 76 16 103 2 27 8 61 14 75 19 46 32 115 31 155 0
22 4 42 10 46 6 4 13 27 16 51 3 24 16 76 29 114 13 39 26 84 30 100 7 34 36
97 49 106 4 4 0 11 -10 17 -17 10 -18 14 -6 44 43 106 53 137 57 172 3 21 12
50 21 63 14 23 14 26 0 42 -19 21 -21 32 -3 25 9 -3 18 16 30 63 35 146 41
183 29 195 -7 7 -12 19 -12 27 0 12 3 12 18 -2 25 -23 57 -5 39 24 -10 17 -9
23 9 38 13 10 24 35 28 64 4 26 18 79 32 118 13 38 22 74 19 78 -2 5 3 15 11
22 9 8 32 47 51 89 31 67 43 105 60 180 3 14 14 35 25 47 13 14 18 28 13 42
-5 17 -2 21 14 21 17 0 21 6 21 33 0 17 8 46 18 62 10 17 27 51 37 78 12 33
23 47 36 47 16 0 17 3 7 19 -9 15 -7 26 10 55 12 21 22 45 22 55 0 9 8 26 18
37 9 10 19 30 20 44 2 13 11 30 20 36 10 7 17 21 18 31 1 39 38 98 55 87 4 -2
4 9 -1 25 -7 25 -3 35 28 72 21 24 53 59 72 79 19 19 39 48 45 65 5 16 19 34
30 40 11 5 20 15 21 20 1 24 17 65 25 65 10 0 59 48 59 58 0 8 103 113 174
179 58 54 80 65 111 57 15 -4 25 -2 25 5 0 6 -7 11 -15 11 -25 0 -7 24 45 59
27 18 73 56 102 82 29 27 69 62 88 79 19 16 60 51 90 77 30 27 89 74 130 105
41 31 104 82 139 112 36 31 72 56 80 56 9 0 29 16 44 35 24 31 33 35 73 35 29
0 51 6 64 18 11 10 50 27 87 39 96 30 116 33 133 23 10 -6 26 2 56 29 56 52
165 77 216 50 18 -10 20 -9 15 5 -4 11 2 24 18 38 15 13 25 32 25 49 0 40 10
59 31 59 28 0 23 17 -10 34 -22 12 -27 20 -24 39 3 17 -2 31 -17 45 -13 12
-24 37 -27 59 -2 21 -8 54 -13 73 -5 19 -12 64 -16 100 -4 36 -11 76 -15 88
-5 13 -7 27 -4 32 3 4 -2 13 -10 20 -8 7 -15 20 -15 30 0 10 -6 33 -14 52 -8
18 -17 54 -20 79 -6 53 -15 81 -30 91 -5 3 -14 37 -18 75 -12 93 -13 96 -23
113 -19 30 -35 86 -35 126 0 22 -5 45 -10 50 -8 8 -7 19 0 39 8 20 7 31 -2 42
-6 8 -13 33 -14 56 -1 23 -4 96 -8 162 -3 66 -2 136 2 155 5 23 4 53 -5 87
-10 37 -11 68 -5 109 5 31 7 65 5 75 -3 12 0 19 8 19 12 0 12 2 1 9 -9 5 -15
37 -19 87 -2 43 -9 95 -14 114 -12 48 -11 157 2 205 8 28 8 40 0 43 -6 2 -8
16 -5 32 5 23 1 31 -22 46 -16 10 -31 19 -33 21 -3 2 4 9 14 17 18 13 17 15
-21 25 -23 6 -53 20 -67 31 -31 25 -110 27 -194 5 -31 -8 -74 -15 -95 -15 -32
0 -40 -4 -48 -25 -5 -14 -17 -25 -26 -25 -9 0 -33 -10 -53 -22 -39 -25 -159
-78 -176 -78 -5 0 -32 -11 -60 -25 -60 -31 -138 -55 -177 -55 -16 0 -50 -11
-76 -24 -66 -34 -164 -53 -195 -39 -13 6 -30 8 -38 3 -8 -4 -41 -6 -74 -5 -33
2 -77 3 -97 4 -30 1 -37 5 -40 24 -2 16 -9 21 -26 19 -13 -1 -30 -9 -38 -17
-18 -18 -34 -20 -34 -4 0 8 -13 9 -41 5 -55 -9 -152 11 -195 40 -19 13 -44 24
-55 24 -12 0 -23 8 -26 20 -4 15 -14 20 -38 20 -37 0 -56 30 -35 55 12 15 7
19 -32 29 -29 7 -88 52 -88 68 0 6 -11 23 -25 40 -14 16 -25 36 -25 44 0 8 -7
14 -16 14 -21 0 -117 98 -143 146 -12 21 -25 46 -30 54 -5 8 -23 46 -40 84
l-31 69 29 31 c16 17 52 55 80 85 54 57 61 71 36 71 -19 0 -19 14 -1 29 11 9
15 8 20 -5 6 -15 9 -15 29 5 13 11 28 21 34 21 6 0 22 15 36 34 14 18 39 39
56 45 17 8 32 23 36 38 3 13 45 65 93 114 94 96 224 285 252 366 15 44 19 48
53 51 33 3 35 5 24 22 -10 16 -7 30 18 80 20 40 36 60 48 60 10 0 15 5 12 10
-4 6 19 60 50 121 31 61 63 129 71 151 7 21 23 52 33 67 34 48 71 177 60 214
-7 26 -5 35 13 55 18 18 20 25 9 31 -11 7 -11 16 -2 44 7 19 11 39 9 43 -1 5
4 56 11 114 11 93 11 108 -3 135 -18 35 -20 61 -6 70 19 11 -71 83 -111 90
-24 4 -43 15 -53 30 l-16 24 -31 -28 c-17 -16 -43 -31 -58 -34 -32 -7 -241
-220 -241 -246 0 -5 -25 -31 -57 -58 -31 -26 -74 -70 -96 -98 -21 -27 -53 -58
-69 -68 -17 -10 -44 -32 -62 -48 -17 -17 -43 -37 -58 -45 -16 -8 -28 -18 -28
-22 0 -4 -33 -32 -74 -62 -41 -30 -74 -59 -74 -65 1 -27 -3 -35 -20 -35 -9 0
-37 -16 -62 -35 -113 -89 -165 -125 -181 -125 -9 0 -22 -7 -30 -16 -7 -8 -21
-13 -30 -11 -10 3 -23 -1 -30 -9 -6 -8 -25 -12 -47 -10 -21 2 -45 -1 -54 -5
-13 -7 -19 -2 -27 24 -13 43 -38 174 -51 270 -6 47 -18 88 -29 105 -28 38 -49
121 -61 239 -7 70 -6 111 1 130 12 32 3 125 -18 169 -11 25 -12 44 -3 99 6 37
15 76 20 86 6 10 17 48 26 86 8 37 20 70 25 73 5 4 4 19 -3 37 -10 26 -9 46 5
105 24 102 28 178 12 208 -7 14 -16 33 -19 43 -3 9 -12 17 -21 17 -8 0 -30 8
-48 18 -26 14 -55 17 -157 15 -69 -1 -138 -3 -155 -6 -34 -5 -105 -44 -105
-59 0 -5 -13 -14 -30 -19 -16 -6 -30 -15 -30 -20 0 -12 -79 -63 -87 -56 -3 4
-8 34 -10 68 -4 47 -1 65 12 79 16 18 16 20 0 37 -10 10 -34 23 -54 28 -21 6
-40 20 -46 33 -7 16 -15 20 -30 15 -11 -4 -36 -8 -55 -8 -55 -3 -57 -3 -70
-34 -21 -51 -21 -100 0 -111 10 -5 32 -23 48 -40 17 -16 37 -30 46 -30 8 0 37
-15 63 -32 l48 -33 -28 -9 c-15 -6 -27 -13 -27 -18 0 -4 -5 -8 -10 -8 -6 0
-27 -11 -48 -25 -20 -13 -57 -29 -82 -34 -25 -6 -58 -17 -75 -25 -35 -17 -101
-27 -130 -20 -11 3 -31 20 -44 39 -25 38 -25 69 1 161 10 35 11 58 5 72 -8 18
-3 31 30 74 39 52 85 146 98 200 4 15 13 32 21 39 8 6 14 23 14 37 0 15 17 51
38 82 44 62 54 90 40 114 -6 11 -5 16 5 16 7 0 23 11 35 25 12 14 28 25 35 25
8 0 19 22 27 50 7 28 18 50 22 50 5 0 7 8 4 18 -3 12 13 32 55 67 40 34 59 57
59 73 0 12 7 25 15 28 8 4 15 13 15 22 0 9 15 30 33 47 61 60 80 86 120 163
21 42 46 82 56 89 10 8 12 12 4 13 -21 0 -15 29 12 64 14 18 25 37 25 43 0 5
11 15 24 21 29 13 42 80 20 98 -8 6 -14 16 -14 21 0 6 -6 16 -14 22 -9 8 -15
32 -15 65 0 29 -3 69 -6 89 -6 28 -3 42 14 63 24 31 27 66 7 83 -15 13 -12 75
6 97 5 7 6 65 2 130 -3 66 -6 151 -6 189 -1 79 27 375 42 441 5 23 7 56 4 72
-9 42 18 77 68 90 29 8 46 7 58 -1 14 -8 29 -5 69 14 28 13 51 27 51 31 0 5
10 8 23 8 43 0 125 28 147 50 27 27 146 84 159 76 5 -4 17 4 26 16 12 15 19
19 22 11 7 -19 24 -16 49 8 19 17 26 19 44 9 22 -12 42 -10 130 9 25 5 63 13
85 17 22 4 43 11 46 17 4 5 31 11 60 13 30 2 76 8 102 14 26 5 67 10 90 10 26
0 60 10 89 25 55 29 65 30 89 9 22 -20 39 -10 39 22 0 25 15 33 23 12 6 -19
172 -15 220 5 20 9 70 19 110 23 39 3 80 11 90 16 10 5 25 7 35 4 53 -16 202
-17 268 -1 38 9 87 20 109 25 22 5 74 12 115 15 51 4 84 13 102 26 35 24 52
24 69 -1 16 -22 34 -24 129 -14 50 5 71 12 92 32 25 23 29 24 45 10 36 -32
188 -16 272 27 29 15 39 16 67 6 18 -6 44 -9 58 -5 15 3 32 1 39 -4 9 -8 21
-7 41 3 37 20 45 19 64 -6 12 -14 31 -21 63 -23 25 -2 55 -9 67 -15 18 -10 23
-9 28 4 8 19 24 20 24 1 0 -15 37 -30 103 -41 28 -4 38 -3 36 7 -3 27 1 38 16
38 20 0 19 -29 -2 -53 -17 -18 -17 -19 0 -32 10 -7 29 -12 42 -9 12 2 28 -3
35 -11 8 -9 21 -13 36 -9 22 6 33 -2 90 -68 7 -7 35 -29 63 -48 27 -19 50 -38
51 -41 0 -4 16 -23 36 -43 24 -24 34 -42 30 -52 -5 -12 -2 -15 10 -10 25 10
46 -12 34 -35 -8 -14 -7 -17 4 -13 10 4 16 -7 21 -43 6 -42 13 -53 57 -88 86
-68 137 -125 143 -159 12 -63 13 -71 14 -83 1 -6 10 -15 22 -18 11 -4 34 -25
50 -48 26 -36 30 -48 24 -84 -6 -41 -6 -41 24 -37 22 4 31 1 34 -13 10 -33 2
-61 -23 -81 -29 -23 -22 -39 9 -22 17 9 22 8 27 -5 9 -24 -3 -85 -21 -105 -8
-9 -13 -24 -9 -33 3 -9 -1 -31 -9 -49 -8 -18 -20 -48 -26 -66 -5 -18 -19 -45
-29 -60 -34 -49 -34 -69 2 -91 17 -11 50 -42 73 -69 l43 -50 60 2 c42 1 63 -3
69 -13 13 -20 28 -6 35 35 6 27 11 34 23 30 12 -5 14 -2 8 16 -9 29 -9 43 0
93 9 49 84 182 106 188 9 2 19 19 23 38 3 18 14 41 23 51 13 15 14 21 5 27 -8
5 -11 17 -7 34 6 23 73 132 103 167 7 8 22 28 33 43 14 18 29 27 43 25 16 -2
20 2 18 16 -2 11 11 34 31 55 19 20 37 44 40 53 5 13 17 17 50 16 25 0 50 -4
57 -8 19 -12 25 -107 9 -136 -10 -20 -10 -27 -1 -33 8 -5 11 -21 8 -42 -3 -19
-8 -77 -11 -129 -9 -127 -40 -278 -66 -313 -14 -19 -19 -37 -15 -52 3 -13 2
-27 -4 -30 -5 -3 -10 -28 -10 -55 0 -30 -14 -92 -34 -152 -18 -57 -37 -120
-40 -140 -18 -98 -103 -314 -149 -376 -14 -18 -28 -50 -32 -70 -4 -20 -13 -44
-20 -52 -7 -8 -16 -26 -20 -40 -4 -14 -23 -47 -42 -75 -63 -93 -103 -150 -113
-162 -5 -7 -10 -24 -10 -38 0 -18 -5 -25 -19 -25 -24 0 -71 -37 -71 -56 0 -8
6 -14 14 -14 23 0 31 -22 14 -34 -14 -10 -13 -19 7 -81 15 -49 29 -74 45 -82
12 -6 26 -17 30 -24 12 -19 80 -39 133 -39 69 0 113 21 122 58 6 28 30 60 39
51 3 -2 7 -33 11 -69 8 -78 12 -83 67 -89 9 -1 -3 -42 -21 -70 -14 -23 -13
-25 27 -60 23 -20 42 -40 42 -45 0 -8 62 -136 88 -181 6 -11 16 -39 22 -62 6
-24 15 -43 19 -43 5 0 11 -10 15 -23 3 -13 15 -34 26 -47 26 -30 25 -46 -1
-61 -24 -13 -15 -26 21 -31 20 -2 32 -17 58 -70 17 -38 37 -68 42 -68 6 0 10
-11 10 -24 0 -16 10 -31 29 -43 45 -28 151 -133 151 -149 0 -8 10 -14 23 -14
12 0 61 -16 110 -37 68 -29 87 -41 87 -57 0 -15 3 -17 12 -8 18 18 167 3 201
-20 25 -18 58 -26 185 -44 23 -4 45 -11 48 -15 3 -5 23 -9 44 -9 21 0 42 -5
45 -10 4 -6 13 -7 23 -1 10 5 33 8 52 7 19 -2 46 1 59 6 15 5 28 5 35 -2 15
-15 92 -12 176 8 91 21 146 12 135 -23 -29 -90 -37 -130 -26 -147 6 -9 7 -20
2 -23 -10 -6 -28 -77 -36 -148 -3 -26 -10 -58 -14 -71 -5 -12 -9 -43 -9 -67 0
-24 -8 -64 -17 -89 -9 -25 -16 -49 -15 -55 0 -5 3 -31 6 -56 4 -35 1 -59 -15
-94 -19 -44 -20 -49 -5 -78 20 -37 25 -95 11 -122 -5 -10 -11 -51 -12 -90 -8
-205 -27 -333 -54 -349 -6 -4 -8 -20 -5 -36 7 -35 -26 -141 -61 -192 -14 -20
-26 -47 -28 -59 -2 -12 -14 -30 -28 -40 -20 -16 -22 -20 -9 -29 8 -5 19 -11
23 -13 5 -1 -1 -22 -13 -45 -12 -23 -20 -49 -16 -57 3 -9 -7 -29 -24 -49 -26
-29 -28 -35 -15 -46 22 -18 18 -52 -9 -93 -22 -32 -23 -36 -8 -42 12 -5 13 -9
5 -12 -7 -3 -13 -15 -13 -28 0 -13 -4 -26 -9 -30 -11 -6 -5 -83 9 -121 8 -21
7 -31 -5 -44 -8 -9 -15 -21 -15 -27 0 -6 -20 -29 -45 -52 -30 -28 -50 -39 -61
-34 -11 4 -15 3 -11 -4 4 -6 -4 -25 -18 -41 -31 -37 -31 -40 0 -34 30 5 35
-21 8 -37 -15 -8 -16 -12 -5 -22 19 -20 15 -52 -14 -106 -18 -35 -26 -70 -29
-119 -6 -103 -25 -246 -36 -265 -13 -26 -11 -39 6 -39 11 0 14 -7 9 -25 -4
-14 -2 -45 4 -68 6 -23 13 -79 15 -124 2 -46 9 -88 16 -97 8 -10 13 -45 13
-95 0 -44 4 -97 8 -118 6 -25 5 -42 -2 -51 -9 -10 -6 -14 10 -19 25 -6 29 -35
8 -56 -12 -11 -11 -15 5 -25 14 -9 18 -19 13 -36 -3 -13 1 -37 10 -54 22 -43
28 -125 9 -151 -12 -18 -12 -21 0 -21 10 0 16 -20 21 -77 3 -42 11 -80 18 -84
9 -6 8 -12 -2 -24 -12 -15 -12 -19 5 -31 16 -12 17 -17 7 -32 -21 -30 -24 -41
-18 -67 4 -15 14 -25 24 -25 25 0 42 -19 42 -47 0 -16 -11 -28 -40 -43 -42
-22 -53 -36 -21 -27 18 4 19 1 14 -44 -5 -45 -4 -49 16 -49 25 0 39 -26 22
-43 -16 -16 -14 -37 4 -37 8 0 44 -16 79 -35 36 -19 74 -35 84 -35 21 0 45
-24 56 -55 5 -15 9 -16 15 -6 11 18 36 9 118 -44 93 -60 114 -77 118 -100 2
-11 4 -21 4 -23 1 -2 11 4 23 12 31 22 47 20 58 -8 5 -15 23 -28 47 -36 50
-17 130 -57 138 -70 4 -6 1 -18 -6 -26 -10 -12 -9 -13 4 -8 18 6 87 -25 222
-101 44 -24 113 -61 153 -82 45 -22 77 -45 82 -59 5 -12 23 -27 41 -33 44 -15
69 -39 69 -68 0 -16 6 -23 20 -23 12 0 54 -34 103 -82 46 -46 109 -107 140
-137 32 -30 78 -84 102 -120 25 -36 52 -76 62 -89 12 -17 13 -26 5 -31 -7 -4
1 -16 22 -33 20 -16 41 -47 52 -75 10 -26 31 -64 47 -83 71 -86 142 -178 189
-246 28 -41 56 -74 62 -74 6 0 2 -7 -8 -15 -19 -15 -19 -15 2 -35 23 -22 62
-99 62 -123 0 -8 7 -17 14 -20 8 -3 18 -23 21 -44 3 -21 15 -56 26 -79 10 -23
19 -46 19 -52 0 -14 87 -260 100 -284 6 -10 10 -32 10 -49 0 -17 6 -43 14 -57
8 -15 20 -67 26 -117 6 -49 19 -117 29 -150 23 -72 38 -143 46 -210 3 -27 11
-55 16 -61 7 -8 7 -14 0 -18 -6 -4 -8 -12 -6 -19 4 -10 15 -72 30 -172 2 -16
9 -56 16 -87 6 -31 9 -74 7 -95 -4 -28 1 -47 18 -73 16 -24 28 -67 39 -138 8
-57 19 -112 25 -121 5 -10 12 -64 16 -121 3 -57 12 -120 19 -140 9 -25 10 -42
3 -54 -7 -12 -5 -24 5 -39 8 -12 17 -58 21 -102 10 -114 16 -156 26 -190 5
-16 12 -74 14 -127 3 -53 9 -106 15 -116 6 -11 13 -42 16 -69 3 -26 7 -67 9
-91 3 -23 8 -48 12 -54 4 -7 8 -46 9 -88 0 -41 7 -85 13 -97 11 -21 10 -23 -8
-23 -24 0 -25 -8 -5 -30 8 -9 17 -34 20 -56 12 -109 18 -180 16 -189 -2 -5 2
-50 8 -100 6 -49 13 -115 16 -145 3 -30 10 -71 15 -90 5 -19 12 -62 16 -95 4
-33 12 -76 19 -95 7 -19 10 -41 8 -48 -3 -7 -2 -20 2 -30 4 -9 7 -36 6 -59 -2
-23 2 -50 7 -60 5 -10 13 -63 16 -118 4 -55 9 -116 12 -135 3 -33 11 -113 34
-350 5 -52 12 -158 15 -235 5 -145 11 -231 21 -299 6 -36 5 -39 -16 -33 l-22
6 21 -21 c14 -13 21 -29 20 -47 -2 -14 0 -32 5 -39 4 -7 9 -74 11 -150 2 -82
10 -159 19 -192 18 -63 21 -126 6 -135 -6 -4 -7 -13 -1 -23 15 -31 32 -245 31
-393 0 -42 5 -90 11 -105 6 -16 10 -78 10 -139 -1 -60 3 -133 7 -161 5 -28 5
-61 0 -75 -6 -14 -5 -41 2 -69 15 -63 17 -75 25 -162 3 -43 13 -100 20 -128
14 -52 12 -95 -6 -116 -7 -9 -5 -15 6 -21 17 -10 16 -6 29 -298 8 -177 15
-256 24 -269 8 -13 10 -166 2 -166 -3 0 -5 -84 -5 -188 0 -103 -3 -209 -8
-237 -9 -60 -8 -54 -6 -138 1 -37 6 -70 11 -73 4 -3 5 -17 2 -31 -5 -20 -4
-25 7 -21 12 5 14 -22 14 -156 0 -88 2 -211 4 -271 3 -89 0 -117 -13 -143 -16
-31 -16 -32 4 -32 16 0 20 -5 16 -17 -3 -10 -8 -35 -12 -56 -3 -20 -10 -40
-15 -43 -5 -3 -6 -11 -2 -17 17 -25 22 -241 11 -432 -5 -71 -9 -172 -10 -223
-2 -68 -7 -95 -17 -102 -12 -7 -12 -12 -3 -23 10 -11 9 -17 -2 -27 -9 -6 -20
-9 -26 -5 -16 10 -11 -8 10 -35 23 -30 26 -63 5 -80 -9 -7 -15 -29 -15 -52 0
-22 -6 -46 -14 -54 -17 -17 -9 -56 23 -108 31 -49 49 -62 129 -91 70 -25 75
-26 93 -9 12 11 38 18 70 19 54 2 69 13 69 53 0 13 9 35 20 49 20 26 27 77 11
87 -8 5 -15 69 -11 106 1 8 3 86 5 174 4 133 7 161 21 171 12 8 14 14 6 19
-17 10 -15 165 2 195 10 18 11 32 4 52 -7 20 -5 35 5 56 14 29 16 161 2 258
-5 36 -1 70 13 122 15 58 17 74 6 85 -14 15 -23 238 -10 275 4 14 1 33 -8 51
-20 39 -29 89 -17 97 12 7 18 436 7 473 -3 9 -2 23 3 31 6 9 4 31 -4 56 -10
34 -10 48 1 73 10 26 10 33 -2 43 -18 15 -18 28 2 51 12 13 14 21 6 30 -17 21
-21 99 -6 133 11 26 11 35 0 51 -7 10 -15 28 -18 39 -3 11 -9 27 -13 37 -4 11
0 18 14 23 26 8 27 37 1 60 -14 13 -19 30 -19 69 0 143 -7 273 -16 286 -12 19
-7 217 6 242 8 15 7 24 -5 37 -10 11 -16 36 -16 71 0 29 -6 76 -14 104 -33
118 -34 134 -15 152 18 16 18 18 1 30 -13 10 -18 34 -24 121 -3 59 -9 143 -14
186 -7 75 -6 79 17 95 l23 16 -24 6 c-23 6 -25 11 -22 50 2 24 10 49 18 57 18
18 18 15 -11 47 -22 24 -24 33 -18 69 13 75 8 204 -12 338 -5 31 -4 49 4 53
16 10 14 26 -3 26 -11 0 -15 18 -18 72 -2 40 0 77 4 83 15 18 9 117 -9 137
-21 24 -13 31 23 18 l29 -10 -27 20 c-29 22 -35 50 -42 203 -3 49 -10 85 -19
95 -20 24 -11 152 10 152 11 0 8 6 -8 20 -21 17 -22 21 -9 30 8 5 19 11 23 13
5 1 0 18 -12 37 -19 33 -22 62 -9 75 3 3 1 29 -4 58 -4 28 -11 77 -13 107 -3
30 -7 73 -10 95 -2 22 -9 54 -16 70 -7 17 -11 60 -10 102 3 62 0 74 -19 93
-17 17 -19 24 -10 30 9 5 11 21 6 53 -5 29 -3 48 4 52 8 5 8 11 -1 21 -6 8 -9
14 -6 14 3 0 -1 16 -9 35 -7 19 -14 65 -14 103 0 37 -4 72 -9 77 -13 13 -19
84 -11 115 4 15 1 34 -7 46 -7 12 -15 49 -16 82 -2 33 -8 66 -14 74 -6 7 -14
23 -17 36 -6 17 -3 24 14 30 22 8 22 8 -4 25 -14 10 -26 23 -26 30 0 6 -6 24
-14 38 -8 16 -10 32 -5 40 11 18 11 271 0 366 -10 80 -29 133 -50 133 -11 0
-11 3 -1 15 10 12 10 21 1 41 -15 35 -14 89 3 104 11 8 12 18 6 36 -5 13 -7
24 -5 24 2 0 0 11 -5 25 -12 32 -50 257 -50 299 0 18 -4 36 -9 41 -12 13 -16
113 -6 148 6 22 3 31 -11 41 -13 10 -19 28 -20 62 -2 76 -31 203 -60 267 -20
46 -24 66 -19 99 5 29 2 57 -11 95 -18 54 -18 55 1 69 13 10 16 17 9 22 -6 4
-24 27 -40 52 -25 40 -28 52 -26 119 2 55 -1 78 -12 90 -11 12 -14 32 -12 72
3 37 0 59 -10 70 -8 9 -17 36 -20 60 -3 24 -10 59 -16 77 -5 18 -7 40 -4 48 4
9 -3 23 -15 33 -19 15 -20 20 -9 42 24 43 21 70 -11 96 -29 25 -40 68 -18 75
18 6 -1 73 -38 135 -19 32 -39 78 -44 103 -15 65 -71 173 -97 186 -24 12 -19
24 9 24 30 0 32 20 5 41 -15 11 -26 31 -26 44 0 12 -7 28 -15 35 -8 7 -15 21
-15 31 0 11 -4 27 -10 37 -15 27 -59 145 -62 167 -2 11 -16 32 -31 47 -15 15
-27 36 -27 48 0 11 -17 38 -37 59 -33 32 -121 137 -160 190 -7 9 -14 29 -17
44 -4 25 -31 66 -72 109 -10 10 -19 39 -22 66 -3 41 -9 52 -38 71 -35 25 -92
85 -164 176 -25 31 -67 72 -95 91 -97 65 -137 106 -144 148 -5 32 -11 40 -29
41 -28 2 -82 53 -82 77 0 10 -5 18 -11 18 -13 0 -84 43 -136 83 -20 15 -42 27
-50 27 -7 0 -21 4 -31 9 -9 5 -35 14 -57 21 -61 19 -85 37 -85 66 0 22 -3 25
-23 20 -26 -6 -28 -5 -168 88 -57 39 -130 82 -162 98 -31 15 -60 34 -63 43 -3
8 -14 15 -24 15 -10 0 -27 10 -37 23 -10 13 -32 26 -50 30 -17 3 -56 22 -87
42 -30 19 -60 35 -65 35 -5 0 -16 9 -23 19 -8 11 -25 22 -39 26 -14 3 -37 21
-51 39 -24 30 -28 44 -32 135 -2 57 -9 108 -16 116 -6 8 -9 19 -5 24 3 6 1 20
-5 31 -6 10 -15 43 -20 71 -6 29 -17 66 -25 82 -9 17 -15 53 -14 81 1 28 -1
65 -5 82 -5 24 -3 33 8 37 19 7 22 28 4 25 -7 -2 -18 20 -26 50 -15 51 -14 53
8 77 l23 25 -31 6 c-35 7 -51 39 -36 71 4 10 6 22 5 27 -1 4 3 14 10 22 9 11
8 15 -4 19 -30 12 -39 182 -12 238 12 24 12 28 -6 37 -16 9 -18 18 -13 50 5
27 2 45 -7 56 -32 38 -8 309 29 333 5 3 8 15 6 26 -2 11 4 31 13 45 24 37 106
115 155 147 l43 27 -30 6 c-38 6 -43 35 -20 97 9 24 15 50 12 57 -3 8 0 17 7
19 19 8 42 95 28 109 -8 8 -6 21 4 48 14 34 14 41 0 67 -8 16 -13 38 -11 49 2
10 4 25 4 32 1 6 9 12 19 12 14 0 14 3 -5 18 -18 14 -21 24 -17 52 3 19 11 44
17 55 7 11 12 37 13 57 1 21 11 52 22 70 11 18 22 49 26 69 4 21 15 48 26 62
14 17 18 34 14 58 -3 23 1 47 15 74 12 21 21 47 21 56 0 9 6 34 13 55 9 25 11
51 6 74 -6 26 -2 53 16 105 14 42 27 106 30 160 4 50 8 97 10 105 2 8 7 49 10
90 4 41 14 91 22 110 13 33 13 36 -7 52 -14 11 -19 22 -13 30 4 7 8 33 9 58 2
72 22 272 32 310 5 20 7 46 5 59 -2 15 5 33 18 47 l21 22 -21 12 c-20 10 -20
13 -6 40 8 16 15 48 15 72 1 41 24 122 47 162 6 10 8 27 6 37 -3 11 1 21 10
25 16 6 22 74 6 74 -5 0 -9 9 -9 21 0 24 42 67 86 88 38 19 234 217 234 237 0
8 14 20 30 25 31 11 38 23 20 34 -6 4 -8 11 -4 16 3 5 9 7 13 5 4 -3 12 -2 17
2 13 9 64 112 64 129 0 13 10 32 56 103 12 19 25 49 28 65 4 17 19 44 33 60
15 15 28 36 30 44 17 97 22 109 74 147 32 24 33 25 12 30 -33 9 -36 35 -13
105 12 34 19 72 16 84 -3 12 0 30 8 41 27 41 54 131 54 184 0 37 10 82 32 140
18 47 35 112 39 146 3 34 12 68 18 76 8 9 12 54 12 129 0 63 4 127 10 143 11
28 9 41 -18 121 -4 11 -4 38 0 60 4 22 8 66 8 98 1 32 7 70 15 85 13 24 12 32
-5 67 -18 36 -19 46 -8 102 11 55 11 65 -4 80 -13 15 -14 26 -6 61 5 24 8 108
7 187 -1 79 1 147 5 151 13 13 7 44 -8 44 -21 0 -19 23 6 54 17 21 18 26 5 26
-15 0 -21 12 -17 34 1 6 -4 26 -12 45 -8 20 -22 94 -32 165 -9 72 -19 136 -22
144 -3 8 3 15 16 19 26 7 27 20 1 28 -23 7 -27 30 -5 39 18 6 9 36 -11 36 -23
0 -39 46 -27 73 8 18 7 27 -7 45 -12 15 -18 39 -18 81 0 42 -5 65 -16 76 -10
11 -16 34 -16 68 -1 53 -27 144 -49 171 -8 10 -10 23 -5 33 11 27 10 73 -2 73
-23 0 -42 36 -43 83 0 26 -10 69 -21 95 -17 37 -20 58 -15 98 5 39 3 54 -9 64
-11 8 -16 29 -16 60 0 27 -9 69 -20 95 -11 26 -20 56 -20 68 0 12 -8 27 -19
34 -26 16 -73 139 -73 191 0 28 -5 45 -14 49 -17 6 -18 30 -1 37 8 3 5 11 -10
24 -13 11 -23 29 -23 40 0 11 -6 25 -14 31 -8 6 -16 22 -19 34 -14 54 -44 125
-63 145 -32 34 -125 228 -131 272 -4 26 -12 41 -24 45 -10 3 -36 41 -59 83
-23 42 -59 95 -81 117 -22 23 -39 51 -39 63 0 14 -8 26 -23 31 -15 6 -28 24
-37 53 -7 23 -24 67 -38 97 -14 30 -27 72 -28 95 -1 26 -7 41 -15 42 -8 0 -19
2 -25 2 -6 1 -17 15 -24 31 -6 16 -20 37 -31 47 -11 10 -22 35 -26 57 -3 23
-13 41 -23 45 -9 4 -31 19 -48 34 -25 21 -32 35 -32 63 0 32 -2 36 -21 30 -22
-7 -41 10 -59 53 -5 12 -26 32 -45 43 -19 12 -35 25 -35 30 0 5 -31 43 -70 85
-38 41 -70 79 -70 85 0 15 -71 89 -86 89 -25 0 -94 77 -94 105 0 22 -4 25 -20
20 -28 -9 -58 11 -75 50 -7 19 -20 35 -28 35 -8 0 -22 15 -31 34 -9 19 -26 38
-39 42 -34 11 -66 37 -67 55 0 21 -24 41 -85 72 -27 14 -59 35 -70 47 -26 29
-68 51 -130 70 -36 11 -54 23 -63 43 -11 23 -16 25 -39 16 -21 -8 -30 -6 -48
11 -12 11 -26 20 -31 20 -16 0 -89 42 -97 56 -7 12 -12 11 -32 -2 -19 -13 -28
-13 -47 -3 -13 7 -25 15 -28 20 -7 10 -115 48 -165 59 -63 13 -146 47 -167 70
-11 12 -32 20 -51 20 -18 0 -54 7 -82 15 -27 8 -70 19 -95 26 -25 6 -58 18
-75 26 -16 7 -82 20 -146 27 -64 8 -126 19 -139 26 -12 6 -55 13 -95 15 -40 2
-86 10 -102 18 -38 19 -82 26 -178 28 -44 1 -123 8 -175 16 -52 8 -120 18
-150 23 -30 4 -86 11 -125 14 -38 3 -105 12 -148 21 -51 10 -127 14 -215 13
-76 -1 -146 1 -157 4 -11 4 -29 3 -40 -2z m-1685 -8860 c9 -17 4 -30 -12 -30
-4 0 -8 10 -8 22 0 31 -7 19 -14 -25 -3 -20 -10 -45 -15 -55 -4 -9 -18 -39
-30 -65 -15 -34 -26 -47 -36 -43 -10 3 -15 -1 -15 -12 0 -22 -37 -93 -57 -109
-20 -16 -44 -63 -32 -63 5 0 9 -4 9 -10 0 -5 -9 -10 -21 -10 -11 0 -18 -4 -15
-8 8 -14 -10 -67 -23 -64 -6 1 -11 -4 -11 -12 0 -7 -9 -16 -19 -19 -16 -4 -19
-12 -15 -39 3 -26 -1 -40 -16 -53 -12 -10 -30 -34 -42 -53 -20 -32 -22 -33
-35 -16 -12 16 -18 12 -14 -10 5 -26 -14 -60 -63 -113 -39 -40 -56 -53 -60
-43 -2 8 -7 22 -9 30 -3 8 -5 -2 -5 -22 1 -25 -7 -46 -24 -67 -15 -17 -28 -36
-30 -42 -6 -18 -48 12 -48 35 0 15 -2 16 -15 6 -12 -10 -13 -15 -4 -21 16 -10
5 -76 -17 -100 -22 -25 -54 -24 -61 1 -3 11 -9 20 -14 20 -5 0 -4 -12 2 -26 5
-15 7 -35 4 -45 -8 -25 -35 -24 -35 0 0 24 -45 114 -65 131 -19 16 -19 36 -1
43 21 8 10 68 -19 97 -21 21 -25 22 -25 7 0 -10 -4 -16 -9 -13 -16 10 -30 100
-22 136 4 19 4 47 0 61 -8 33 -3 42 39 63 31 16 34 16 82 -5 56 -24 67 -21 50
10 -13 25 -6 41 17 41 9 0 31 10 50 21 l35 22 39 -39 c46 -45 58 -41 28 10
-18 31 -19 36 -5 36 9 0 16 6 16 13 1 13 73 67 90 67 6 0 24 16 41 35 17 19
39 37 49 40 10 3 22 15 25 27 5 14 10 17 18 9 16 -16 27 -14 21 3 -8 21 35 43
47 25 7 -11 9 -9 9 7 0 11 -5 25 -11 31 -8 8 -4 15 12 27 28 19 49 21 50 4 0
-10 2 -10 6 0 7 18 31 15 37 -5 2 -10 2 -1 -1 19 -6 43 2 72 17 63 8 -5 7 -12
-2 -23 -12 -16 -11 -16 7 -2 42 32 83 76 89 97 11 35 68 37 86 3z"/>
<path d="M20890 25556 c0 -2 7 -7 16 -10 8 -3 12 -2 9 4 -6 10 -25 14 -25 6z"/>
<path d="M20810 25461 c0 -6 5 -13 10 -16 6 -3 10 1 10 9 0 9 -4 16 -10 16 -5
0 -10 -4 -10 -9z"/>
<path d="M20810 25394 c0 -15 27 -50 34 -43 4 3 -2 17 -13 30 -11 13 -20 19
-21 13z"/>
<path d="M20715 25320 c3 -5 11 -10 16 -10 6 0 7 5 4 10 -3 6 -11 10 -16 10
-6 0 -7 -4 -4 -10z"/>
<path d="M20680 25272 c0 -5 9 -17 21 -28 l21 -19 -24 -6 -23 -7 25 -1 c14 -1
37 -8 53 -15 30 -16 34 -11 12 18 -8 11 -15 31 -15 45 0 24 0 24 -15 5 -14
-18 -16 -18 -29 -1 -14 18 -26 22 -26 9z"/>
<path d="M20605 25250 c3 -5 8 -10 11 -10 2 0 4 5 4 10 0 6 -5 10 -11 10 -5 0
-7 -4 -4 -10z"/>
<path d="M20561 25194 c0 -11 3 -14 6 -6 3 7 2 16 -1 19 -3 4 -6 -2 -5 -13z"/>
<path d="M20455 25160 c3 -5 8 -10 11 -10 2 0 4 5 4 10 0 6 -5 10 -11 10 -5 0
-7 -4 -4 -10z"/>
<path d="M20395 25150 c-3 -5 -1 -10 4 -10 6 0 11 -11 11 -25 0 -14 4 -25 10
-25 5 0 8 10 6 23 -3 12 -5 28 -5 35 -1 14 -17 16 -26 2z"/>
<path d="M20510 25150 c0 -5 4 -10 9 -10 6 0 13 5 16 10 3 6 -1 10 -9 10 -9 0
-16 -4 -16 -10z"/>
<path d="M20310 25130 c0 -5 5 -10 10 -10 6 0 10 5 10 10 0 6 -4 10 -10 10 -5
0 -10 -4 -10 -10z"/>
<path d="M20627 25081 c3 -12 9 -21 14 -21 14 0 11 16 -5 29 -12 10 -13 8 -9
-8z"/>
<path d="M20540 25010 c20 -13 53 -13 45 0 -3 6 -18 10 -33 10 -21 0 -24 -2
-12 -10z"/>
<path d="M20520 24981 c0 -6 4 -13 10 -16 6 -3 7 1 4 9 -7 18 -14 21 -14 7z"/>
<path d="M20470 24849 c0 -17 4 -28 10 -24 6 3 10 17 10 31 0 13 -4 24 -10 24
-5 0 -10 -14 -10 -31z"/>
<path d="M21147 29606 c-6 -15 -17 -16 -89 -11 -52 4 -100 2 -128 -5 -25 -6
-68 -15 -96 -20 -28 -4 -69 -17 -92 -29 -23 -12 -48 -21 -56 -21 -8 0 -27 -7
-43 -15 -60 -31 -125 -56 -141 -53 -10 1 -31 -7 -46 -20 -16 -12 -34 -22 -40
-22 -6 0 -26 -14 -45 -30 -23 -20 -40 -28 -53 -24 -10 3 -18 2 -17 -3 4 -23
-3 -33 -26 -33 -13 0 -48 -18 -77 -40 -29 -23 -65 -43 -80 -47 -18 -3 -28 -12
-29 -24 -1 -11 -3 -28 -4 -39 -1 -11 -3 -35 -4 -54 0 -19 -7 -41 -15 -49 -13
-13 -9 -17 27 -31 42 -17 42 -17 18 -30 -30 -17 -8 -28 28 -14 20 7 28 4 46
-18 17 -21 30 -27 61 -26 115 1 142 13 246 109 31 29 70 55 85 59 15 4 46 15
68 25 75 34 177 69 186 64 4 -3 13 3 19 14 7 14 25 22 58 26 26 3 76 14 112
25 53 16 84 19 167 15 95 -4 104 -3 123 17 27 29 43 83 37 122 -11 66 -24 83
-89 115 -35 18 -72 44 -84 58 -18 23 -21 24 -27 9z"/>
<path d="M20674 28854 c-21 -15 -50 -35 -63 -45 -15 -12 -32 -17 -44 -13 -14
4 -18 2 -15 -7 3 -8 17 -13 32 -12 14 1 26 -3 26 -10 0 -6 16 -37 35 -68 21
-34 33 -64 29 -73 -4 -11 -1 -16 10 -16 19 0 21 -21 4 -38 -18 -18 9 -34 46
-26 18 4 31 1 36 -7 7 -10 12 -10 26 2 10 8 38 14 65 14 65 0 96 28 78 69 -13
28 -8 37 26 49 6 2 2 14 -9 25 -14 16 -17 31 -13 55 5 31 3 34 -31 47 -21 7
-50 22 -66 33 -16 11 -45 23 -65 27 -20 4 -43 10 -52 14 -9 4 -31 -4 -55 -20z"/>
<path d="M35226 26192 c-9 -8 14 -42 29 -42 10 0 15 -16 18 -52 3 -47 4 -45 5
18 2 69 1 72 -23 76 -13 3 -27 3 -29 0z"/>
<path d="M33840 23669 c0 -5 5 -7 10 -4 6 3 10 8 10 11 0 2 -4 4 -10 4 -5 0
-10 -5 -10 -11z"/>
<path d="M18660 23471 c0 -18 42 -61 61 -61 26 0 24 16 -6 36 -14 9 -22 20
-19 25 3 5 -4 9 -15 9 -12 0 -21 -4 -21 -9z"/>
<path d="M14025 21911 c-11 -5 -40 -12 -65 -16 -54 -9 -140 -46 -122 -52 6 -3
12 -14 12 -24 0 -19 -2 -19 -22 -5 -34 24 -79 20 -113 -10 -23 -20 -38 -25
-70 -22 -34 3 -40 0 -43 -18 -2 -15 -8 -20 -21 -17 -9 2 -23 -3 -30 -11 -8 -9
-25 -16 -40 -16 -14 0 -57 -11 -96 -25 -38 -13 -80 -25 -92 -25 -29 0 -80 -73
-74 -107 3 -19 -21 -15 -47 7 -17 14 -21 25 -16 44 7 29 5 30 -29 17 -14 -6
-28 -19 -32 -31 -5 -16 -10 -18 -20 -10 -9 7 -30 3 -76 -18 -36 -16 -96 -35
-134 -41 -76 -14 -109 -27 -100 -42 4 -6 -15 -9 -47 -7 -34 1 -66 -5 -90 -16
-33 -16 -37 -22 -35 -50 2 -26 -2 -32 -21 -34 -20 -3 -22 0 -16 22 5 23 3 26
-19 26 -14 0 -38 -5 -54 -12 -15 -6 -50 -14 -78 -17 -46 -5 -50 -8 -47 -30 3
-22 1 -23 -25 -15 -67 19 -212 -13 -227 -51 -3 -8 -13 -11 -26 -8 -13 4 -29
-2 -43 -14 -17 -16 -41 -22 -101 -26 -81 -6 -114 -20 -86 -37 12 -7 12 -12 3
-21 -10 -10 -17 -9 -33 6 -16 14 -22 15 -35 5 -21 -18 -9 -30 30 -30 39 0 65
-28 65 -71 0 -37 -9 -41 -38 -19 -13 11 -31 20 -38 20 -8 0 -14 7 -14 16 0 13
7 15 30 11 17 -4 30 -2 30 3 0 6 -8 11 -17 11 -35 3 -68 6 -81 7 -9 1 -11 9
-7 22 5 17 2 20 -25 20 -17 0 -59 -11 -93 -24 -34 -13 -75 -27 -91 -30 -29 -7
-31 -21 -11 -70 7 -16 5 -17 -24 -11 -18 4 -44 13 -58 20 l-25 13 28 16 29 15
-28 1 c-28 0 -74 -21 -109 -49 -10 -7 -28 -11 -42 -9 -34 7 -57 -9 -33 -23 30
-18 20 -32 -20 -26 -27 5 -33 3 -25 -5 19 -19 14 -30 -10 -26 -13 2 -22 8 -20
13 3 10 -28 22 -64 24 -12 1 -34 -9 -50 -21 -16 -13 -43 -23 -64 -23 -28 -1
-36 -6 -38 -23 -3 -20 1 -22 46 -21 47 2 102 -21 102 -42 0 -11 -11 -11 -70 0
-33 7 -54 5 -84 -7 -30 -12 -45 -13 -68 -4 -24 9 -32 8 -47 -7 -15 -15 -22
-16 -41 -6 -19 10 -26 9 -41 -6 -15 -15 -30 -17 -87 -13 -59 4 -73 2 -93 -15
-21 -18 -22 -22 -9 -31 13 -9 12 -12 -4 -25 -25 -19 -60 -19 -75 -1 -9 10 -34
13 -109 9 -53 -2 -110 -8 -127 -13 -16 -5 -50 -12 -75 -15 -96 -12 -126 -18
-158 -31 -18 -7 -51 -16 -75 -19 -23 -4 -43 -8 -45 -10 -9 -9 21 -45 38 -45
35 0 50 -12 50 -40 0 -16 -5 -32 -10 -35 -19 -12 -72 6 -77 26 -5 17 -8 17
-38 5 -53 -23 -65 8 -15 37 17 10 30 23 30 28 0 13 -29 5 -109 -32 -39 -18
-72 -27 -84 -23 -12 4 -17 2 -13 -4 4 -6 -5 -12 -21 -14 -26 -3 -30 -10 -24
-46 0 -4 15 -16 31 -25 32 -19 34 -17 42 28 3 15 11 20 30 18 22 -1 28 4 33
28 7 30 29 48 43 35 3 -4 1 -16 -6 -26 -18 -30 -15 -43 18 -72 31 -27 45 -83
15 -58 -13 11 -18 10 -28 -4 -12 -16 -14 -16 -29 1 -9 10 -18 29 -21 43 -4 24
-5 24 -12 3 -4 -11 -16 -24 -27 -26 -34 -9 -15 -35 37 -52 16 -5 11 -10 -30
-26 -60 -23 -55 -22 -55 -4 0 12 -8 14 -39 9 -32 -5 -42 -2 -60 17 -25 27 -26
38 -7 45 11 4 12 12 3 40 -9 31 -14 34 -47 34 -20 0 -52 -5 -70 -12 -20 -7
-35 -8 -37 -2 -5 16 -83 4 -83 -13 0 -22 28 -70 44 -76 9 -4 12 -14 9 -25 -2
-11 0 -23 6 -26 19 -12 12 -28 -9 -21 -16 5 -20 2 -20 -19 0 -15 8 -30 20 -36
28 -15 15 -36 -23 -37 -18 0 -44 -4 -59 -8 -22 -6 -28 -4 -28 9 0 8 -11 18
-24 22 -28 7 -38 25 -25 45 7 11 11 11 22 -5 11 -15 17 -17 35 -7 13 7 28 9
35 6 6 -4 1 3 -12 15 -18 15 -32 19 -53 15 -53 -12 -30 35 43 87 19 13 22 19
12 29 -7 7 -13 21 -13 31 0 20 -10 23 -25 9 -6 -5 -43 -12 -84 -15 -87 -8 -94
-11 -81 -37 9 -15 7 -19 -5 -19 -9 0 -24 4 -33 9 -16 8 -87 16 -119 12 -7 0
-13 -10 -13 -21 0 -20 -15 -28 -22 -11 -3 9 -47 14 -95 12 -12 -1 -29 -8 -37
-17 -9 -8 -20 -13 -24 -10 -5 3 -21 -2 -36 -10 -16 -7 -54 -14 -85 -14 -31 0
-74 -6 -96 -14 -22 -8 -60 -16 -84 -19 -25 -3 -49 -11 -55 -19 -16 -20 -92
-51 -106 -43 -8 5 -5 14 11 31 22 24 14 35 -9 12 -6 -6 -33 -13 -59 -14 -39
-2 -93 -11 -123 -19 -3 -1 -24 -5 -46 -9 -23 -4 -51 -16 -62 -27 -23 -20 -48
-26 -36 -8 4 7 0 10 -11 7 -31 -5 -42 -34 -22 -56 25 -27 21 -39 -14 -44 -36
-6 -51 16 -25 35 36 27 2 37 -132 40 -128 2 -131 2 -126 -19 4 -15 -2 -23 -20
-32 -20 -9 -26 -19 -26 -43 0 -18 -7 -40 -15 -50 -13 -14 -14 -19 -3 -30 8 -8
21 -25 30 -38 l17 -24 31 32 c29 32 30 32 30 10 0 -13 3 -34 6 -46 5 -19 2
-23 -18 -23 -13 0 -30 6 -36 12 -10 10 -14 8 -18 -10 -4 -12 -10 -22 -14 -22
-4 0 -20 -10 -35 -22 -24 -19 -26 -23 -12 -33 40 -29 42 -79 5 -178 -16 -44
-18 -61 -9 -66 9 -6 9 -18 0 -53 -15 -55 -8 -78 20 -71 16 4 21 1 21 -16 0
-14 -6 -21 -20 -21 -37 0 -43 -36 -22 -142 5 -27 5 -49 0 -50 -11 -4 -11 -2
-3 -218 6 -197 12 -257 25 -265 6 -3 6 -15 0 -29 -6 -17 -4 -28 7 -39 14 -14
14 -20 -2 -60 -10 -27 -14 -51 -9 -59 5 -7 9 -92 10 -188 1 -96 6 -191 11
-210 5 -19 8 -53 6 -75 -5 -45 -8 -154 -7 -235 0 -30 0 -242 0 -470 -1 -228 3
-422 7 -431 6 -12 2 -18 -14 -22 -21 -6 -21 -9 -14 -94 8 -103 14 -133 26
-133 5 0 9 5 9 11 0 5 4 8 9 5 7 -5 8 -14 2 -62 0 -7 -10 -14 -20 -17 -24 -6
-37 -77 -26 -150 4 -29 6 -65 4 -82 -1 -16 -3 -73 -3 -125 -1 -89 0 -95 19
-92 21 4 92 -16 112 -31 37 -27 -36 -40 -83 -15 -24 13 -40 16 -46 10 -10 -10
-29 -320 -21 -334 2 -4 6 -40 9 -80 2 -40 6 -97 9 -126 3 -34 0 -66 -10 -88
-13 -31 -13 -40 0 -71 9 -22 12 -40 6 -47 -11 -14 -19 -54 -26 -143 -4 -40 -8
-81 -9 -90 -2 -10 1 -31 5 -47 6 -19 5 -34 -2 -43 -7 -8 -12 -73 -14 -166 -1
-83 -8 -165 -14 -180 -19 -47 -14 -94 12 -112 20 -15 21 -17 5 -26 -22 -12
-23 -23 -2 -44 15 -15 15 -17 -6 -32 -18 -13 -21 -22 -16 -57 3 -22 6 -45 7
-51 0 -5 -2 -31 -6 -56 -6 -36 -4 -49 10 -62 17 -18 19 -72 2 -95 -16 -21 -33
-125 -27 -167 4 -29 8 -36 14 -26 8 12 11 12 20 0 6 -8 22 -14 35 -14 13 0 26
-6 29 -12 2 -9 -8 -13 -32 -13 -50 0 -64 -26 -69 -133 -3 -48 -10 -94 -17
-102 -9 -10 -9 -19 0 -35 6 -12 13 -20 15 -18 2 2 14 96 15 120 0 3 15 5 33 4
17 -2 44 -4 58 -5 15 0 38 -13 52 -27 14 -14 30 -23 34 -21 5 3 15 2 23 -3 11
-7 12 -15 5 -36 -12 -34 -25 -39 -50 -18 -20 15 -20 15 3 11 12 -3 20 -1 17 4
-3 4 -21 11 -40 15 -24 4 -35 12 -37 27 -2 12 -12 23 -23 26 -15 2 -17 0 -9
-10 6 -8 14 -26 18 -41 7 -32 -21 -68 -53 -68 -53 0 -71 -35 -23 -46 40 -10
45 -14 30 -32 -15 -20 -38 -59 -38 -67 0 -3 9 -5 20 -5 15 0 22 -9 27 -30 3
-16 11 -30 19 -30 25 0 27 -23 4 -42 -40 -33 -58 -24 -62 30 -3 37 -5 43 -13
27 -5 -11 -16 -25 -24 -32 -14 -10 -14 -12 1 -18 17 -7 17 -9 -2 -32 -15 -19
-17 -30 -9 -49 5 -14 9 -40 9 -57 0 -18 7 -43 15 -57 8 -14 17 -32 20 -40 20
-50 44 -88 73 -117 l33 -33 25 25 c32 32 36 31 28 -2 -6 -28 -6 -27 19 6 15
19 28 39 30 45 3 8 9 7 20 -2 18 -16 14 -52 -8 -65 -8 -4 -13 -13 -10 -18 9
-13 25 -1 35 27 11 28 28 31 36 7 4 -10 12 -32 20 -50 8 -17 14 -38 14 -46 0
-8 10 -25 23 -39 12 -14 37 -41 55 -61 18 -21 38 -38 45 -38 47 -5 73 -9 103
-19 18 -6 42 -9 51 -6 46 14 78 14 131 -1 84 -23 149 -34 217 -38 33 -1 80 -7
105 -13 25 -5 76 -13 113 -17 37 -3 78 -9 90 -11 12 -3 62 -10 111 -15 103
-10 249 -42 323 -70 28 -11 78 -23 110 -26 32 -3 66 -10 75 -15 10 -4 41 -9
70 -10 28 0 68 -7 88 -16 19 -8 71 -25 115 -37 92 -25 148 -52 140 -65 -4 -6
-1 -10 4 -10 6 0 11 9 11 19 0 20 8 21 81 6 20 -4 61 -8 90 -10 70 -4 146 -19
193 -39 21 -9 54 -16 72 -16 43 0 115 -17 178 -42 45 -18 51 -19 61 -4 15 20
25 20 25 1 0 -9 12 -20 26 -25 14 -6 33 -18 42 -27 16 -15 17 -15 20 0 5 23
24 21 74 -4 23 -12 53 -23 67 -25 196 -24 245 -34 253 -48 5 -9 19 -16 32 -16
14 0 27 -9 34 -22 8 -18 11 -19 11 -5 1 22 51 24 51 2 0 -8 -4 -15 -9 -15 -5
0 -14 -14 -20 -32 -9 -26 -8 -37 9 -65 11 -19 20 -40 20 -48 0 -24 56 -36 95
-20 25 11 41 12 61 5 32 -13 49 -1 57 39 4 17 15 32 26 36 24 7 92 -21 155
-64 25 -17 50 -31 56 -31 7 0 10 -7 7 -14 -4 -10 -1 -13 7 -10 19 7 68 -14 98
-43 29 -28 66 -33 126 -19 25 6 32 5 30 -6 -2 -9 8 -13 30 -14 18 0 38 -6 44
-12 15 -15 45 -16 53 -2 10 15 35 12 35 -5 0 -8 8 -15 18 -15 9 -1 51 -5 92
-10 57 -6 82 -5 102 5 29 14 38 11 38 -16 0 -16 54 -49 82 -49 8 0 32 -9 53
-21 40 -21 127 -51 155 -53 8 -1 27 -10 43 -20 19 -13 38 -17 62 -13 19 3 37
1 40 -4 9 -14 43 -11 81 7 36 17 49 14 49 -14 0 -24 74 -21 92 5 12 15 15 16
23 3 5 -8 10 -18 10 -22 0 -12 70 -9 70 2 0 16 27 12 34 -5 3 -8 14 -15 24
-15 10 0 21 -3 25 -6 3 -4 43 -8 89 -10 75 -3 84 -5 101 -28 10 -14 24 -26 31
-26 7 0 20 -15 29 -32 10 -21 16 -27 16 -15 1 9 6 17 12 17 9 0 73 -46 107
-77 7 -7 33 -13 58 -13 47 0 77 -20 94 -64 7 -19 18 -24 62 -28 34 -4 56 -2
60 6 5 6 8 2 8 -10 0 -12 11 -29 25 -38 30 -20 45 -20 45 -1 0 25 18 17 27
-12 8 -23 18 -28 73 -40 35 -7 87 -24 115 -38 29 -14 62 -25 73 -25 28 0 89
54 113 101 22 45 134 142 208 182 44 23 51 31 46 48 -6 18 -4 20 17 13 12 -4
60 -7 105 -6 64 1 86 -2 99 -15 15 -15 18 -15 35 8 22 29 30 57 19 64 -13 8
19 76 51 109 16 17 29 35 29 41 0 13 24 12 53 0 12 -5 25 -1 40 12 12 11 51
37 87 58 36 20 76 47 90 60 14 12 37 29 51 36 14 8 57 38 95 67 38 28 90 62
117 74 42 19 47 25 47 54 0 38 14 51 35 34 19 -16 61 -5 95 23 15 12 35 27 44
32 10 6 20 28 23 52 5 39 7 41 44 45 22 2 43 0 48 -5 16 -16 68 18 181 119 25
23 71 57 102 77 55 35 142 101 198 150 48 42 113 86 120 82 4 -3 13 2 20 10 7
8 18 15 25 15 6 0 20 9 30 20 19 21 275 150 298 150 9 0 35 19 58 41 48 46
138 99 169 99 10 0 21 8 24 18 3 9 33 34 66 54 33 20 60 44 60 53 0 8 7 15 16
15 8 0 12 -4 9 -10 -11 -17 11 -11 39 11 14 11 26 29 26 40 0 15 5 18 23 14
26 -7 56 18 37 30 -8 5 -8 11 1 21 17 20 39 17 39 -6 0 -30 18 -24 22 8 2 22
11 30 46 42 24 8 69 36 100 63 54 45 102 67 148 67 11 0 30 14 43 31 13 17 38
37 56 45 19 7 36 18 40 24 3 5 17 10 31 10 15 0 24 6 24 15 0 8 24 27 55 42
34 17 58 36 65 53 6 14 24 31 41 37 19 8 35 23 42 42 6 17 18 31 26 31 8 0 22
6 30 14 9 7 47 30 84 50 173 94 222 128 239 168 7 15 17 26 23 24 5 -1 35 18
65 44 30 26 75 60 99 75 23 16 47 40 52 53 5 13 13 21 18 18 11 -7 31 38 31
69 0 13 -4 26 -9 30 -10 6 4 62 20 79 16 17 10 36 -11 36 -13 0 -20 7 -20 20
0 10 -9 24 -20 30 -15 8 -19 17 -15 32 4 11 1 49 -5 85 -11 55 -16 66 -39 74
-14 6 -47 24 -73 40 -39 25 -50 28 -67 19 -32 -16 -269 -19 -275 -3 -7 18 -46
16 -46 -2 0 -9 8 -14 23 -12 16 1 22 -3 22 -18 0 -20 -22 -23 -82 -10 -26 6
-31 25 -7 25 9 0 14 6 11 13 -2 6 -12 12 -23 12 -10 0 -24 3 -30 7 -20 13 -98
22 -91 11 8 -12 -20 -39 -30 -29 -3 3 -1 17 5 30 12 27 5 41 -12 26 -7 -5 -31
-13 -54 -18 -34 -8 -44 -7 -51 5 -6 11 -29 16 -87 18 -43 2 -94 7 -112 10 -21
5 -43 2 -67 -9 -40 -19 -69 -11 -40 11 16 11 16 13 3 13 -9 0 -19 6 -21 13 -3
6 -6 2 -6 -10 -1 -16 -7 -23 -20 -23 -30 0 -51 11 -51 25 0 8 -5 17 -11 21 -7
4 -9 0 -5 -14 8 -26 -8 -37 -24 -17 -7 8 -20 15 -29 15 -9 0 -21 4 -26 9 -6 6
-23 12 -38 15 -24 4 -27 3 -17 -10 18 -20 -18 -19 -41 2 -14 13 -20 13 -39 2
-18 -11 -23 -11 -35 6 -10 14 -26 19 -51 18 -25 -1 -42 4 -50 16 -8 10 -13 12
-14 5 0 -15 -50 -18 -50 -3 0 14 -68 30 -129 30 -35 0 -61 6 -71 15 -23 21
-49 9 -66 -29 l-15 -31 4 37 c3 44 1 45 -91 53 -65 6 -70 5 -75 -15 -6 -22
-34 -23 -29 -1 1 6 -8 11 -20 12 -13 0 -49 3 -81 5 -36 3 -56 1 -53 -5 8 -12
-30 -25 -45 -15 -7 4 -10 3 -7 -2 3 -5 2 -18 -2 -29 -6 -18 -8 -17 -23 11 -9
17 -13 34 -10 38 4 3 -12 6 -35 6 -22 0 -42 -4 -44 -9 -1 -5 -28 -2 -58 6 -36
9 -56 10 -58 3 -6 -16 -32 -12 -32 6 0 13 -3 14 -14 5 -11 -10 -21 -9 -43 3
-32 16 -193 49 -201 41 -3 -3 -3 -5 -1 -6 2 0 15 -2 29 -5 77 -12 92 -16 86
-21 -8 -8 -146 -15 -164 -8 -12 4 -11 10 8 30 29 31 20 44 -15 21 -20 -13 -25
-14 -25 -3 0 23 -43 37 -65 21 -24 -18 -39 -18 -32 0 8 19 -3 28 -18 16 -9 -7
-16 -6 -25 5 -10 12 -16 12 -34 3 -11 -6 -37 -13 -56 -14 -19 -1 -43 -5 -52
-9 -15 -6 -18 -1 -18 34 0 43 -16 54 -39 27 -14 -17 -92 -39 -117 -33 -15 3
-12 7 14 17 39 14 42 30 6 30 -35 0 -84 -36 -84 -62 0 -12 -3 -18 -7 -14 -5 4
-8 26 -8 49 0 36 -3 42 -22 45 -16 2 -23 -2 -23 -12 0 -21 -7 -20 -38 4 l-26
21 -22 -26 c-14 -17 -25 -22 -29 -15 -4 6 -4 14 -1 17 9 9 -51 33 -80 33 -13
0 -24 4 -24 9 0 11 -39 3 -58 -12 -8 -7 -18 -5 -30 6 -28 26 -72 38 -165 47
-49 5 -94 13 -100 18 -21 18 -77 22 -77 6 0 -8 5 -14 10 -14 6 0 10 -4 10 -10
0 -11 -59 -14 -84 -4 -24 9 -20 37 4 29 11 -3 20 -2 20 4 0 16 -21 24 -33 12
-16 -16 -27 -14 -28 7 0 11 -2 12 -6 4 -3 -7 1 -19 7 -28 18 -21 4 -29 -26
-15 -16 7 -24 17 -21 26 3 7 0 18 -6 23 -18 15 -340 9 -345 -6 -6 -19 -33 -14
-30 6 2 13 -3 16 -27 14 -51 -4 -76 -2 -88 5 -7 5 -28 8 -47 9 -158 4 -271 28
-255 54 3 5 0 12 -5 15 -6 4 -15 18 -20 31 -9 23 -11 24 -32 10 -13 -7 -32
-12 -43 -10 -11 1 -28 -4 -37 -13 -15 -13 -18 -13 -18 -2 0 12 -2 12 -9 0 -5
-8 -16 -11 -26 -7 -15 5 -15 7 -1 22 9 8 13 21 9 27 -5 8 -8 8 -11 -1 -7 -21
-22 -13 -22 12 0 24 1 24 26 11 30 -15 55 -10 47 11 -6 17 1 18 28 3 11 -6 33
-7 49 -4 34 7 50 44 50 115 0 26 3 49 6 52 3 3 7 56 10 117 2 61 8 130 14 154
16 72 12 141 -10 170 l-20 25 22 14 c37 25 33 178 -5 178 -22 0 -13 42 11 51
25 9 25 10 28 99 1 36 3 76 5 89 3 19 -1 26 -19 30 -31 8 -29 25 3 29 l25 3 0
118 c0 88 -4 122 -15 137 -8 10 -15 26 -15 35 0 9 -11 20 -25 23 -29 7 -34 26
-6 26 11 0 26 7 35 15 8 9 21 14 28 13 8 -2 15 15 19 47 4 28 12 64 17 80 5
17 10 56 11 89 1 32 5 68 7 80 8 33 15 212 8 199 -7 -15 -34 -17 -34 -3 0 6
-17 10 -37 10 l-36 0 23 25 c18 19 20 27 11 39 -14 17 4 26 54 26 42 0 52 17
51 85 l-1 50 -42 6 c-24 3 -44 7 -45 10 -29 46 -29 51 -6 47 13 -2 23 -10 23
-18 0 -21 32 -24 60 -6 19 13 25 25 25 54 0 21 5 43 10 48 9 9 26 102 34 194
8 75 39 236 48 247 6 8 6 23 -1 46 -8 23 -8 49 -1 86 16 87 13 121 -10 121
-28 0 -25 25 5 38 20 9 25 19 25 47 0 24 -5 35 -15 35 -19 0 -20 16 -1 27 13
8 16 18 32 103 4 19 11 40 16 47 11 13 -2 42 -26 63 -23 18 -20 30 9 30 28 0
29 3 15 31 -8 13 -7 19 0 19 22 0 36 24 32 57 -4 33 -5 33 -19 13 -8 -11 -18
-18 -23 -15 -12 7 -2 35 23 63 11 12 17 22 13 22 -5 0 -3 6 3 14 6 7 8 27 5
45 -5 25 -2 37 16 56 17 18 20 28 12 37 -17 21 -25 103 -12 127 11 22 17 92 9
121 -3 10 3 14 14 14 16 -2 17 4 11 55 -8 66 -9 61 4 131 11 59 26 214 23 243
-4 45 -4 64 2 92 5 27 16 180 21 310 1 28 -1 60 -5 72 -6 15 -3 23 6 27 12 4
13 11 4 33 -10 26 -5 106 9 127 12 19 11 91 -1 115 -9 19 -9 25 4 35 22 15 28
38 17 59 -7 14 -4 24 15 42 23 24 47 84 47 120 0 9 9 24 21 34 l20 16 -21 28
c-12 15 -30 27 -41 27 -10 0 -19 3 -19 8 0 13 39 32 55 26 12 -5 15 3 15 46 0
42 3 50 13 42 10 -9 13 2 12 56 -1 64 18 132 37 132 4 0 7 -3 7 -7 -3 -20 3
-20 25 0 13 12 24 35 25 52 0 17 3 48 6 70 8 61 7 97 -4 108 -6 6 -36 10 -67
11 -38 1 -59 5 -62 14 -3 10 7 13 39 12 70 -3 71 -2 59 19 -5 11 -19 23 -30
26 -12 4 -28 24 -36 46 -17 42 -18 42 -49 30z m-310 -602 c-1 -70 -27 -172
-52 -202 -13 -16 -26 -46 -29 -68 -4 -22 -14 -50 -24 -61 -14 -18 -15 -29 -8
-62 5 -22 16 -48 24 -57 8 -8 14 -19 14 -22 0 -12 -38 -7 -43 6 -16 37 -4 -27
13 -76 25 -72 25 -83 -2 -90 -23 -7 -48 3 -68 27 -10 14 -9 16 8 16 28 0 48
26 26 34 -8 3 -26 6 -38 6 -12 0 -31 7 -43 15 -12 8 -38 18 -60 21 -21 3 -45
12 -54 20 -14 12 -20 11 -46 -15 -17 -16 -55 -36 -86 -45 -69 -20 -66 -20 -77
7 -7 17 -9 18 -9 5 -1 -10 -7 -18 -14 -18 -7 0 -43 -16 -79 -35 -76 -41 -164
-57 -179 -34 -7 11 -9 11 -9 -3 0 -14 -9 -18 -38 -18 -26 0 -45 -7 -57 -20
-11 -12 -29 -19 -44 -18 -14 1 -37 -6 -51 -15 -14 -9 -49 -21 -78 -28 -45 -9
-56 -8 -77 5 -24 16 -25 16 -25 -7 0 -19 -8 -26 -39 -35 -21 -7 -52 -12 -69
-12 -20 0 -44 -12 -72 -35 -30 -25 -52 -35 -76 -35 -18 0 -51 -6 -71 -14 -21
-8 -54 -17 -73 -19 -19 -2 -53 -13 -75 -24 -22 -11 -62 -21 -90 -22 -27 -1
-63 -7 -79 -13 -24 -9 -31 -9 -40 4 -9 12 -14 13 -23 3 -6 -6 -48 -15 -94 -19
-45 -4 -116 -18 -157 -32 -40 -13 -77 -22 -82 -19 -5 3 -18 2 -27 -3 -10 -6
-38 -12 -62 -16 -25 -3 -49 -10 -55 -16 -5 -5 -31 -10 -56 -10 -33 0 -52 -6
-64 -18 -9 -11 -30 -19 -48 -20 -17 0 -36 -6 -41 -11 -6 -6 -25 -11 -41 -11
-17 0 -58 -12 -91 -26 -33 -14 -76 -30 -95 -36 -19 -5 -59 -17 -88 -25 -51
-15 -88 -14 -125 2 -15 6 -18 4 -15 -10 2 -15 -6 -21 -36 -27 -22 -5 -58 -15
-80 -22 -40 -14 -68 -14 -113 0 -17 5 -23 2 -23 -9 0 -15 -16 -24 -62 -32 -63
-12 -84 -18 -95 -27 -7 -6 -24 -8 -37 -4 -15 4 -28 0 -36 -9 -13 -15 -114 -40
-129 -31 -5 3 -26 0 -47 -7 -22 -8 -58 -15 -82 -16 -24 -1 -66 -11 -94 -22
-46 -18 -53 -18 -67 -5 -13 14 -17 14 -36 -4 -16 -15 -45 -23 -108 -30 -47 -6
-121 -17 -164 -25 -43 -9 -106 -18 -141 -20 -34 -3 -89 -11 -121 -20 -33 -8
-80 -15 -106 -15 -25 0 -55 -5 -65 -10 -10 -6 -61 -12 -112 -15 -51 -3 -102
-10 -113 -15 -63 -27 -118 -42 -144 -38 -19 3 -32 0 -35 -9 -3 -7 -12 -13 -21
-13 -8 0 -24 -6 -35 -12 -16 -10 -24 -10 -40 -1 -15 10 -21 10 -27 -1 -23 -40
-143 -74 -143 -41 0 9 -8 19 -17 22 -10 4 -35 18 -56 31 -45 30 -114 34 -133
7 -31 -42 -27 -196 8 -330 19 -71 20 -160 4 -224 -14 -56 -14 -63 4 -118 24
-73 25 -85 1 -115 -19 -23 -19 -25 -1 -36 12 -7 20 -28 23 -59 19 -161 19
-175 7 -183 -15 -10 -15 -97 1 -116 7 -9 14 -56 16 -115 2 -55 8 -110 12 -122
5 -12 4 -31 -1 -43 -7 -14 -4 -35 11 -73 15 -41 18 -59 10 -74 -8 -13 -8 -22
0 -30 13 -13 14 -86 1 -107 -5 -9 -5 -19 1 -27 6 -7 7 -22 3 -35 -13 -38 -11
-71 6 -117 16 -41 16 -47 1 -72 -14 -25 -14 -32 2 -80 9 -29 14 -55 12 -58 -3
-2 -16 6 -30 19 -29 27 -31 24 -10 -18 9 -16 18 -54 21 -83 3 -29 7 -55 9 -58
3 -2 1 -9 -4 -15 -9 -10 -17 -125 -25 -351 -1 -39 -5 -76 -9 -82 -4 -7 -10
-103 -13 -215 -3 -112 -10 -216 -15 -232 -7 -22 -5 -35 6 -52 19 -29 19 -38 0
-31 -8 4 -17 2 -20 -3 -5 -8 -7 -83 -4 -130 1 -17 -8 -93 -16 -130 -2 -14 -14
-32 -26 -41 l-22 -16 24 -17 c23 -16 24 -21 21 -114 -4 -113 -4 -151 -1 -290
1 -56 -1 -105 -4 -108 -4 -4 -1 -16 6 -28 6 -11 12 -43 13 -71 1 -27 5 -69 9
-92 6 -36 4 -42 -15 -48 -19 -6 -20 -9 -8 -23 8 -10 14 -24 13 -32 0 -8 4 -18
9 -22 5 -3 10 -41 9 -82 0 -42 4 -76 8 -76 5 0 16 -17 25 -37 12 -28 15 -57
11 -112 -4 -56 -2 -79 9 -97 9 -13 14 -34 12 -47 -1 -13 5 -32 15 -41 9 -10
15 -22 12 -27 -4 -5 6 -14 20 -21 15 -6 33 -24 40 -38 12 -23 12 -30 -2 -49
-8 -13 -15 -39 -15 -59 1 -156 1 -152 26 -162 33 -12 41 -28 26 -55 -13 -25
-6 -75 10 -75 6 0 10 5 10 10 0 6 7 10 16 10 9 0 14 -8 13 -17 -3 -38 0 -44
27 -37 25 6 26 5 20 -19 -6 -25 8 -49 16 -26 3 8 13 7 35 -5 42 -21 53 -20 92
8 l33 25 52 -19 c85 -31 143 -30 183 4 16 14 38 23 49 22 10 -2 31 3 46 10 15
8 36 14 46 14 11 0 39 11 63 24 123 69 224 100 349 110 19 1 44 7 55 13 11 6
57 13 102 16 85 6 123 19 123 40 0 14 66 37 105 37 14 0 48 9 77 21 29 11 91
31 138 44 47 13 108 30 135 38 28 8 78 17 111 20 38 3 82 16 114 32 29 14 58
24 66 21 8 -3 14 -1 14 4 0 25 34 40 95 40 35 0 92 9 128 20 48 15 72 18 91
11 21 -9 26 -7 31 9 5 17 10 18 27 9 17 -9 23 -8 30 4 5 9 34 24 66 33 31 10
62 24 68 31 7 7 40 16 75 19 35 3 84 12 109 19 25 8 62 17 83 21 20 3 37 10
37 15 0 18 58 37 134 43 43 3 81 8 84 11 3 3 10 0 17 -5 7 -6 24 -6 46 0 19 6
47 13 63 16 38 6 46 12 46 30 0 15 5 17 67 14 39 -1 78 13 96 35 6 7 10 7 13
0 2 -5 26 -8 54 -7 32 3 50 0 50 -7 0 -6 -7 -11 -15 -11 -8 0 -23 -4 -33 -10
-49 -26 -175 -80 -237 -101 -38 -13 -79 -31 -91 -41 -11 -10 -27 -18 -35 -18
-8 0 -19 -4 -24 -9 -6 -4 -46 -23 -90 -41 -44 -18 -86 -37 -93 -43 -7 -5 -27
-11 -45 -12 -33 -3 -41 -6 -147 -50 -36 -15 -101 -41 -145 -57 -44 -16 -102
-40 -130 -53 -60 -29 -134 -55 -156 -55 -9 0 -22 -7 -29 -15 -7 -9 -21 -13
-31 -10 -9 3 -20 1 -23 -4 -10 -16 -67 -41 -95 -41 -14 0 -46 -9 -70 -20 -24
-11 -51 -20 -60 -20 -9 0 -26 -7 -38 -15 -12 -8 -39 -14 -61 -13 -22 1 -49 -6
-63 -15 -29 -21 -69 -21 -133 -2 -27 8 -65 15 -85 15 -20 0 -49 7 -66 16 -41
22 -115 25 -167 7 -52 -18 -58 -26 -58 -80 0 -77 -9 -86 -112 -122 -51 -18
-104 -35 -118 -38 -14 -3 -32 -12 -41 -19 -9 -8 -42 -19 -75 -25 -34 -6 -69
-20 -81 -32 -13 -11 -23 -17 -23 -13 0 5 -10 2 -23 -7 -12 -8 -46 -19 -74 -25
-29 -7 -85 -27 -125 -45 -40 -19 -91 -40 -113 -47 -22 -7 -65 -27 -96 -46 -30
-18 -77 -38 -105 -44 -27 -6 -76 -26 -110 -45 -34 -18 -82 -36 -108 -39 -26
-4 -64 -16 -84 -26 -20 -11 -41 -20 -46 -20 -5 0 -20 -10 -32 -21 -13 -12 -37
-23 -53 -24 -17 -1 -38 -8 -46 -15 -7 -6 -29 -11 -47 -10 -39 2 -78 -9 -78
-21 0 -5 -9 -9 -21 -9 -11 0 -28 -4 -37 -9 -9 -5 -37 -11 -62 -14 -25 -3 -60
-9 -77 -13 -21 -4 -38 -2 -48 6 -8 7 -25 10 -38 8 -23 -4 -23 -4 -22 111 1
122 12 218 27 238 13 16 14 538 1 665 -6 63 -7 123 -3 145 5 21 12 108 15 193
4 85 12 179 20 208 9 35 14 121 15 248 0 108 3 209 7 225 3 19 1 29 -6 29 -8
0 -10 18 -7 58 3 31 8 138 11 237 7 209 13 293 21 306 3 5 -2 16 -11 25 -12
13 -14 28 -8 82 4 37 6 76 5 87 -3 28 -1 190 3 250 4 68 18 526 16 545 -2 24
-1 158 3 247 1 51 8 88 16 98 12 15 12 19 -5 31 -23 17 -22 8 -29 359 -14 646
-13 739 3 767 14 25 13 28 -7 45 -27 23 -38 137 -16 179 13 24 12 28 -3 40
-15 10 -16 15 -5 25 14 15 17 69 3 69 -10 0 -27 111 -22 150 4 38 4 145 0 236
-3 65 -1 86 12 100 11 12 19 47 24 99 4 44 8 81 10 83 1 2 -1 19 -5 38 -9 38
-9 38 57 35 34 -2 42 1 48 19 5 15 14 20 29 18 13 -1 31 3 40 11 16 13 62 11
126 -5 21 -6 23 -4 13 7 -7 7 -13 16 -13 20 0 9 78 26 155 34 33 4 74 11 92
18 27 9 35 8 52 -7 19 -17 20 -17 38 1 11 11 59 29 109 42 49 12 105 26 124
31 19 5 62 12 94 15 32 3 64 9 70 14 6 5 55 21 108 36 78 22 103 25 127 17 16
-6 32 -7 36 -4 4 4 35 7 68 8 34 0 101 12 149 26 48 13 115 26 150 27 34 1 66
5 71 8 4 2 33 7 65 9 79 7 233 55 327 102 27 14 79 28 115 33 105 13 211 28
265 38 28 6 68 10 90 10 23 1 59 10 80 21 22 11 67 23 99 27 37 4 66 13 78 25
10 10 31 18 47 18 21 0 32 6 36 21 5 14 12 18 23 14 39 -16 54 -17 70 -3 9 8
37 20 62 27 25 7 54 18 65 25 11 7 22 13 25 14 3 0 30 10 60 21 30 12 71 24
90 26 19 3 64 16 100 29 84 31 172 56 196 56 10 0 53 12 94 25 41 14 84 25 95
25 12 0 25 3 28 7 16 15 115 43 155 43 24 0 41 4 38 9 -7 10 16 21 44 21 10 0
20 9 23 20 4 17 14 20 54 20 36 0 55 6 72 21 16 15 43 24 89 30 37 4 82 12
101 18 19 6 70 13 113 17 49 3 92 13 112 24 33 19 193 70 220 70 9 0 16 -4 16
-10 0 -5 5 -10 10 -10 6 0 10 9 10 20 0 14 11 22 43 31 23 7 50 21 59 31 9 11
27 20 40 21 13 0 26 5 30 11 3 5 37 13 75 18 68 8 158 31 200 50 12 6 40 8 61
6 31 -5 43 -2 55 13 9 10 29 21 44 24 55 12 108 28 129 41 23 13 56 20 94 19
23 -1 25 -5 25 -46z m-551 -957 c5 -8 -22 -93 -41 -127 -6 -11 -9 -29 -7 -40
1 -11 -3 -26 -11 -35 -7 -8 -16 -32 -20 -52 -4 -21 -13 -42 -21 -49 -8 -6 -14
-30 -14 -53 0 -53 -45 -185 -71 -209 -18 -17 -19 -21 -5 -36 12 -14 14 -24 6
-52 -6 -18 -10 -45 -10 -60 0 -40 -29 -129 -43 -129 -7 0 -23 16 -35 36 -16
24 -27 33 -34 26 -13 -13 7 -52 27 -52 10 0 15 -10 15 -28 0 -16 9 -35 21 -45
14 -12 18 -24 13 -35 -29 -69 -44 -134 -44 -196 -1 -39 -6 -91 -11 -116 -6
-25 -14 -117 -17 -206 -5 -110 -11 -166 -20 -177 -11 -13 -11 -20 3 -40 10
-16 14 -34 9 -51 -3 -15 -1 -32 5 -40 7 -9 8 -28 2 -60 -5 -28 -5 -49 1 -52 5
-3 7 -20 5 -37 -2 -18 0 -43 6 -57 5 -14 11 -83 13 -155 3 -71 7 -146 9 -165
14 -95 17 -198 6 -219 -9 -17 -9 -30 -1 -57 11 -31 10 -37 -8 -53 -19 -16 -19
-18 -4 -28 15 -9 17 -28 15 -132 l-1 -121 25 0 25 0 -23 -19 c-21 -17 -22 -22
-12 -53 5 -20 7 -53 3 -74 -4 -26 -2 -49 7 -67 18 -36 23 -121 10 -164 -8 -24
-7 -37 1 -45 8 -8 8 -19 -2 -42 -7 -17 -11 -51 -9 -75 1 -25 -2 -50 -7 -56 -6
-7 -6 -24 1 -46 9 -32 7 -92 -8 -204 -8 -59 -8 -121 0 -270 9 -154 8 -224 -4
-268 -13 -49 -13 -185 0 -201 7 -8 4 -15 -10 -24 -20 -13 -26 -56 -9 -67 6 -4
8 -21 5 -38 -2 -18 -7 -50 -10 -72 -7 -49 -16 -55 -86 -55 -30 0 -59 -4 -65
-9 -5 -5 -34 -11 -64 -14 -30 -2 -86 -11 -125 -20 -38 -9 -96 -18 -127 -21
-32 -2 -68 -12 -80 -20 -12 -9 -35 -16 -49 -16 -15 0 -67 -10 -116 -21 -94
-23 -224 -32 -289 -20 -47 9 -64 5 -64 -15 0 -8 -6 -14 -12 -12 -7 1 -22 -3
-33 -9 -11 -6 -47 -13 -80 -17 -71 -7 -105 -15 -105 -26 0 -4 -25 -11 -56 -15
-30 -3 -85 -15 -122 -26 -37 -11 -85 -21 -108 -23 -22 -2 -50 -8 -61 -15 -12
-6 -29 -8 -38 -5 -9 4 -24 -1 -35 -11 -11 -10 -26 -15 -34 -12 -8 3 -17 3 -21
-1 -4 -4 -21 -8 -38 -9 -66 -3 -170 -22 -180 -32 -6 -6 -20 -11 -30 -11 -10 0
-31 -7 -45 -15 -15 -8 -80 -24 -145 -35 -74 -13 -158 -36 -230 -64 -115 -44
-309 -107 -407 -132 -30 -7 -84 -21 -120 -30 -36 -9 -119 -31 -185 -48 -87
-24 -128 -31 -149 -25 -23 7 -29 5 -33 -11 -4 -14 -14 -20 -32 -20 -15 0 -31
-4 -36 -9 -6 -5 -53 -21 -105 -36 -52 -14 -112 -32 -133 -40 -20 -8 -48 -15
-61 -15 -13 0 -29 -7 -36 -15 -7 -8 -25 -15 -40 -15 -16 0 -41 -6 -57 -14 -15
-7 -57 -23 -93 -35 -139 -46 -187 -58 -201 -50 -8 4 -26 9 -40 11 -33 5 -51
18 -45 33 2 7 1 30 -4 50 -7 30 -5 46 11 76 10 21 19 49 19 63 0 14 5 37 11
53 6 15 20 59 29 97 18 67 18 68 -1 73 -10 3 -16 9 -13 15 3 5 14 6 25 3 16
-5 19 -1 19 24 0 21 -5 31 -15 31 -8 0 -15 7 -15 15 0 8 7 15 16 15 32 0 6 26
-62 62 -38 21 -74 38 -81 38 -7 0 -23 -11 -37 -25 -61 -61 -76 -17 -85 250 -7
207 -6 475 2 511 5 21 14 132 22 264 2 41 7 167 10 280 3 113 7 223 10 245 5
53 13 198 21 364 3 73 7 142 9 152 4 19 7 135 6 206 -1 24 -8 48 -17 57 -14
15 -14 17 0 32 15 15 21 36 16 59 -1 6 -3 48 -6 95 -8 179 -13 196 -51 191 -7
-1 -13 5 -13 14 0 8 9 15 20 15 29 0 34 37 20 143 -12 93 -13 112 -28 313 -5
61 -12 115 -15 121 -8 13 -15 109 -23 313 -3 85 -6 166 -7 180 -1 14 2 46 6
72 l8 46 52 0 c49 1 54 3 98 51 41 45 51 50 77 45 25 -5 30 -3 36 19 6 25 27
30 124 29 21 0 32 4 32 13 0 20 7 23 116 44 55 11 131 27 169 35 91 19 129 24
254 36 57 6 106 12 110 14 4 3 38 7 76 11 39 3 97 13 130 22 33 8 71 16 85 17
14 2 32 5 40 8 8 4 50 9 92 13 102 8 172 30 196 60 11 14 26 25 33 25 11 0 11
-3 -1 -11 -11 -8 -2 -9 35 -5 101 11 370 68 441 92 27 9 61 18 75 19 14 0 42
9 63 19 20 9 54 18 76 19 21 1 42 6 46 10 4 4 17 7 29 7 11 0 26 5 31 10 11
11 170 54 239 64 51 8 184 45 208 58 10 5 40 12 65 15 26 3 58 11 72 18 14 7
59 18 100 25 41 6 113 20 160 30 47 11 100 22 119 25 19 3 37 7 40 9 6 4 27 6
184 22 32 3 83 14 114 25 31 10 66 19 78 19 12 0 53 13 91 28 38 16 96 34 129
41 33 7 75 21 93 32 18 10 47 21 65 24 32 6 97 41 97 53 0 4 28 7 63 7 62 0
88 8 181 56 59 30 63 32 70 21z m389 -250 c3 -37 1 -75 -5 -90 -6 -15 -14 -43
-17 -62 -4 -19 -12 -35 -18 -35 -6 0 -15 -4 -20 -9 -5 -5 2 -7 15 -3 17 4 27
-1 38 -19 19 -29 13 -51 -18 -64 -13 -5 -17 -9 -10 -9 6 -1 12 -14 12 -30 0
-16 7 -44 15 -64 8 -19 12 -37 8 -40 -6 -7 -50 26 -90 65 -13 13 -23 17 -23
11 0 -11 44 -57 84 -86 9 -7 16 -28 17 -47 1 -45 -12 -120 -21 -120 -4 0 -12
-11 -18 -25 -6 -14 -19 -25 -28 -25 -8 0 -14 -3 -12 -7 2 -5 10 -20 17 -35 8
-15 11 -34 7 -44 -7 -18 -12 -15 -64 39 -10 10 -31 17 -54 17 -40 0 -63 24
-52 54 7 19 20 21 27 4 3 -8 6 -6 6 5 1 25 35 21 55 -5 14 -20 15 -20 9 -3 -7
22 -37 68 -67 102 -16 19 -17 27 -8 45 10 20 26 108 36 203 4 32 18 35 47 9
22 -20 31 -17 19 6 -16 29 -1 46 17 21 8 -12 20 -21 26 -21 7 0 -3 14 -21 31
-48 43 -52 85 -17 157 31 63 47 99 66 151 l12 33 13 -23 c6 -13 14 -53 17 -87z
m-196 -722 c9 -17 13 -20 13 -8 0 29 17 29 50 2 49 -42 61 -73 56 -156 -2 -40
-4 -76 -5 -80 -1 -3 -14 -1 -30 5 -22 8 -27 15 -23 31 3 15 1 18 -6 11 -10 -9
-16 -42 -13 -74 1 -12 4 -12 13 -3 19 19 37 14 31 -7 -3 -10 1 -29 7 -42 11
-20 10 -25 -10 -41 -17 -13 -26 -15 -41 -7 -11 5 -16 15 -13 21 4 7 3 8 -4 4
-7 -4 -12 -12 -12 -17 0 -6 -7 -17 -15 -25 -22 -22 -19 -40 3 -21 25 23 31 21
42 -8 5 -14 13 -25 18 -25 5 0 7 11 4 25 -6 33 16 33 24 -1 4 -14 3 -56 -1
-93 -3 -36 -6 -81 -6 -98 1 -18 -2 -33 -7 -33 -5 0 -13 -21 -17 -47 -7 -42 -9
-79 -14 -230 -1 -23 -6 -33 -17 -33 -12 0 -14 -5 -9 -17 25 -60 9 -99 -27 -66
-29 26 -31 9 -3 -23 20 -24 25 -40 25 -85 0 -41 -4 -58 -15 -63 -10 -3 -15
-19 -15 -42 0 -36 0 -37 -20 -19 -24 22 -25 17 -6 -21 8 -15 12 -32 9 -37 -3
-6 -6 -27 -5 -47 2 -35 -7 -50 -53 -88 -8 -7 -15 -18 -15 -25 0 -8 3 -8 9 2
13 20 55 4 46 -17 -4 -10 -9 -79 -11 -156 -2 -76 -6 -148 -10 -160 -7 -23 -33
-56 -45 -56 -9 0 -24 150 -21 210 1 24 7 47 13 50 6 5 7 22 0 51 -5 24 -8 76
-7 114 2 43 -3 83 -11 104 -19 45 -21 110 -4 120 11 7 8 14 -13 32 -29 25 -33
44 -11 53 13 5 13 10 -1 46 -9 23 -14 43 -11 46 3 3 1 21 -5 41 -7 27 -7 38 3
44 10 6 10 12 -4 27 -21 23 -21 32 1 48 14 10 15 15 5 25 -18 18 -17 96 1 106
19 11 21 25 12 126 -6 65 -5 91 4 102 8 9 11 30 7 54 -2 21 1 62 9 92 8 29 14
75 14 101 0 26 4 49 9 52 4 3 6 16 4 30 -3 13 0 27 6 30 6 4 11 22 11 39 0 33
22 127 35 147 12 20 59 7 72 -20z m111 -4316 c24 -4 32 -10 32 -26 0 -12 -3
-18 -6 -15 -4 4 -19 -2 -33 -12 -15 -11 -50 -27 -79 -36 -40 -13 -54 -23 -58
-42 -5 -20 -11 -23 -31 -18 -19 4 -26 1 -29 -13 -3 -10 -17 -23 -32 -30 -15
-6 -49 -25 -77 -41 -60 -36 -79 -39 -72 -11 4 16 1 18 -23 14 -22 -5 -40 4
-91 41 -67 49 -81 65 -56 65 7 0 22 9 32 20 10 11 33 22 51 26 18 3 47 19 64
36 53 50 78 56 234 51 77 -2 156 -6 174 -9z m623 -49 c25 -13 36 -14 64 -4 26
10 37 10 48 0 8 -6 23 -13 33 -15 57 -11 111 -16 214 -22 63 -3 118 -8 123
-11 17 -10 4 -36 -35 -74 -43 -39 -54 -42 -103 -25 -18 7 -18 6 -2 -4 25 -16
8 -42 -43 -65 -39 -18 -41 -18 -55 1 -12 14 -15 15 -14 4 3 -35 -2 -61 -11
-55 -6 3 -36 -10 -68 -29 -31 -20 -62 -36 -68 -36 -6 0 -20 -13 -32 -30 -26
-34 -52 -39 -52 -11 0 11 -6 23 -12 27 -7 4 -10 4 -6 0 3 -4 2 -20 -3 -36 -9
-24 -16 -28 -66 -34 -42 -5 -60 -3 -72 8 -9 8 -45 17 -81 20 -36 2 -109 8
-163 12 -54 4 -100 11 -103 15 -3 5 -2 9 3 10 29 3 48 10 76 32 18 13 50 33
72 45 28 14 46 32 57 59 20 43 61 72 97 67 20 -4 22 -2 11 11 -11 13 -9 19 9
38 11 13 21 33 21 45 0 15 6 22 19 22 11 0 33 11 48 25 33 29 53 31 94 10z
m905 -125 c6 -6 52 -13 102 -15 50 -3 122 -10 159 -16 37 -6 77 -12 88 -13 11
-1 27 -5 35 -9 8 -3 48 -7 88 -10 81 -5 109 -21 98 -55 -6 -19 -27 -34 -111
-85 -16 -11 -52 -36 -80 -57 -27 -20 -75 -54 -105 -74 -30 -20 -59 -39 -65
-44 -32 -25 -85 -52 -103 -52 -11 0 -24 -4 -27 -10 -3 -5 -19 -10 -36 -10 -31
0 -39 -14 -13 -24 21 -8 8 -26 -19 -26 -12 0 -31 -7 -42 -16 -18 -13 -20 -13
-27 3 -5 14 -7 14 -7 3 -1 -8 -9 -20 -19 -25 -71 -38 -68 -38 -103 -22 -19 8
-74 27 -124 42 -124 37 -143 45 -149 61 -3 9 2 17 12 21 21 8 85 56 132 100
19 18 63 48 97 66 36 18 63 39 63 47 0 9 14 24 31 34 17 10 46 40 66 67 19 27
39 49 45 49 6 0 7 7 4 16 -21 55 -16 80 10 54z m-2510 -90 c16 -5 48 -14 72
-20 24 -6 53 -22 64 -36 12 -13 30 -24 40 -24 10 0 27 -9 37 -19 11 -11 28
-17 38 -15 12 3 23 -5 35 -26 l18 -31 -35 -15 c-19 -8 -41 -14 -49 -14 -8 0
-18 -4 -21 -10 -3 -5 -14 -10 -24 -10 -9 0 -32 -11 -51 -25 -18 -14 -50 -28
-69 -31 -43 -8 -79 -25 -108 -53 -12 -12 -34 -21 -48 -21 -14 0 -48 -11 -75
-25 -37 -19 -48 -29 -43 -41 5 -13 1 -15 -24 -10 -18 4 -40 1 -59 -9 -34 -17
-54 -19 -54 -5 0 6 -5 10 -11 10 -6 0 -24 9 -39 20 -16 11 -48 27 -71 35 -23
8 -52 26 -65 39 -16 16 -40 25 -75 29 -54 7 -114 35 -109 52 1 6 28 17 59 26
75 22 220 76 234 87 7 5 39 19 72 32 33 13 76 31 95 42 59 31 184 77 211 78
14 0 39 -4 55 -10z m3758 -116 c9 -8 21 -12 26 -9 16 10 411 7 445 -3 27 -7
30 -13 30 -48 0 -38 -1 -39 -35 -39 -28 0 -34 -4 -32 -18 2 -10 -3 -17 -13
-17 -8 0 -15 -6 -15 -14 0 -8 -15 -17 -34 -20 -18 -4 -45 -19 -60 -36 -18 -21
-36 -30 -59 -31 -25 0 -28 -2 -13 -8 23 -9 17 -13 -50 -35 -33 -11 -65 -31
-95 -62 -49 -51 -86 -73 -124 -76 -18 -2 -25 -8 -25 -24 0 -15 -16 -34 -50
-59 l-50 -37 -78 8 c-42 5 -95 8 -117 7 -22 -1 -46 4 -55 12 -19 17 -46 23
-145 30 -94 6 -183 20 -192 28 -3 4 5 11 18 16 13 5 69 53 124 106 111 107
149 135 183 135 13 0 21 4 17 10 -7 11 30 50 48 50 6 0 20 18 29 40 9 22 12
40 7 40 -18 0 -9 39 13 54 33 23 279 23 302 0z m828 -95 c20 -5 40 -14 43 -19
4 -7 13 -6 25 0 13 7 33 7 62 0 24 -5 67 -10 97 -10 46 0 52 -2 41 -15 -15
-19 -8 -19 52 -1 50 16 131 13 214 -5 27 -6 70 -13 96 -15 26 -2 82 -13 125
-25 105 -29 150 -34 168 -19 11 9 18 10 29 1 7 -6 34 -10 60 -10 25 1 49 0 52
-4 8 -7 -114 -97 -132 -97 -7 0 -36 -21 -64 -47 -54 -50 -133 -98 -180 -108
-17 -4 -30 -11 -30 -16 0 -18 -67 -77 -91 -81 -13 -1 -29 -14 -36 -28 -15 -30
-41 -50 -66 -50 -10 0 -39 -17 -65 -38 -26 -22 -65 -48 -87 -59 -76 -39 -109
-58 -128 -75 -11 -9 -32 -20 -47 -23 -15 -3 -32 -16 -37 -28 -6 -12 -28 -31
-49 -42 -22 -10 -50 -27 -63 -37 -13 -10 -30 -18 -38 -18 -8 0 -26 -11 -41
-25 -26 -25 -27 -25 -34 -4 -5 11 -5 25 -2 30 3 5 -2 12 -10 15 -8 3 -25 36
-36 72 -27 84 -63 121 -117 120 -22 0 -68 11 -104 26 -36 14 -78 26 -92 26
-15 0 -27 5 -27 10 0 6 6 10 13 10 6 0 30 16 52 35 22 19 45 35 51 35 7 0 15
7 18 15 3 9 22 23 41 31 19 8 45 30 57 48 27 42 66 66 105 66 20 0 31 7 38 23
6 12 16 23 23 23 6 1 19 2 28 3 10 1 14 7 11 16 -4 8 -3 17 2 19 12 8 6 173
-8 190 -6 7 -11 18 -9 22 1 5 -6 21 -16 36 -10 15 -15 32 -12 37 7 10 53 6
118 -10z m-3839 -248 c23 -11 92 -32 152 -47 120 -29 140 -36 140 -52 0 -18
-187 -136 -248 -157 -50 -17 -62 -18 -90 -6 -17 7 -50 15 -72 18 -22 3 -47 9
-56 14 -25 13 -101 28 -169 34 -68 6 -103 20 -97 38 2 6 31 22 64 35 33 12 78
38 101 57 90 78 198 103 275 66z m-1913 -36 c7 -4 7 -13 0 -24 -8 -16 -3 -21
38 -36 26 -10 52 -21 57 -25 18 -13 85 -22 85 -10 0 16 50 12 56 -5 4 -8 16
-15 29 -15 12 0 28 -7 35 -15 8 -9 30 -15 56 -15 72 0 63 -9 -102 -96 -70 -37
-169 -74 -196 -74 -4 0 -8 10 -8 23 l-1 22 -18 -22 c-22 -26 -37 -29 -44 -10
-7 20 -103 53 -206 72 -85 16 -91 19 -110 51 -16 27 -17 34 -6 34 8 0 15 6 15
14 0 8 17 31 37 50 38 35 38 35 58 16 25 -24 35 -25 35 -6 0 24 34 56 72 70
37 12 99 13 118 1z m2895 -180 c55 -20 110 -37 121 -36 12 0 27 -6 34 -14 7
-8 19 -15 26 -15 27 0 13 -20 -38 -55 -29 -20 -69 -47 -88 -60 -50 -35 -132
-75 -154 -75 -10 0 -41 11 -68 25 -31 16 -75 27 -117 31 -96 9 -143 46 -91 74
12 6 38 27 58 46 55 51 174 123 197 119 11 -2 65 -20 120 -40z m-3872 -187
c68 -23 97 -40 123 -67 l33 -36 1 28 c0 30 11 35 29 13 7 -8 20 -12 30 -9 16
4 20 -3 26 -36 5 -32 11 -41 27 -41 18 0 18 1 3 16 -29 30 -2 40 58 22 28 -9
77 -22 107 -28 55 -12 140 -48 140 -59 -1 -10 -109 -85 -187 -130 -40 -23 -79
-51 -87 -63 -15 -21 -68 -57 -114 -78 -13 -5 -30 -17 -38 -25 -9 -8 -24 -15
-34 -15 -10 0 -31 -13 -47 -30 -33 -35 -51 -37 -86 -9 -21 15 -31 18 -46 10
-14 -8 -22 -7 -30 3 -13 15 -85 36 -126 36 -14 0 -43 9 -63 19 -50 26 -102 41
-139 41 -17 0 -38 8 -48 20 -10 11 -25 20 -33 20 -23 0 -127 34 -130 42 -2 4
-20 10 -40 13 -51 8 -109 24 -162 45 -25 10 -67 21 -95 25 -79 11 -136 55 -71
55 12 0 40 8 62 19 21 10 55 22 74 26 19 3 53 15 76 25 22 10 67 26 100 36 32
9 68 23 79 29 11 7 36 16 55 20 19 4 45 13 57 21 12 8 37 14 54 14 31 0 75 11
204 50 75 22 122 18 238 -22z m2002 -21 c33 -10 75 -26 93 -33 18 -8 39 -14
47 -14 7 0 62 -15 122 -34 90 -28 156 -44 196 -46 26 -1 -15 -60 -43 -60 -9 0
-30 -11 -46 -25 -84 -73 -194 -82 -307 -24 -33 16 -65 28 -72 25 -7 -2 -17 0
-21 4 -5 5 -59 20 -121 33 -61 14 -116 28 -122 31 -6 4 -30 9 -53 12 -44 5
-58 11 -58 22 0 10 80 58 110 67 22 6 55 20 135 55 37 16 50 18 65 13 8 -3 42
-15 75 -26z m2847 -68 c10 -5 18 -19 18 -30 0 -11 5 -17 10 -14 6 4 8 11 5 16
-4 5 0 10 7 11 55 6 70 4 83 -16 13 -17 15 -18 15 -3 0 10 8 17 20 17 19 0 20
-2 5 -30 -22 -42 -19 -47 13 -18 30 29 38 31 135 29 50 -1 68 -4 65 -13 -7
-19 -120 -97 -141 -98 -10 0 -34 -16 -54 -36 -45 -47 -186 -141 -224 -149 -37
-8 -89 3 -96 20 -2 8 -11 11 -18 9 -17 -7 -273 67 -348 101 -49 21 -58 29 -55
48 2 17 12 23 40 28 20 3 44 11 52 18 17 14 40 6 30 -11 -4 -5 4 -4 17 3 13 7
29 14 34 15 6 0 15 2 20 3 6 1 4 5 -4 10 -12 8 -12 12 -2 25 8 9 19 16 26 16
8 0 15 5 17 12 2 6 33 21 69 33 53 19 79 22 154 18 49 -2 97 -9 107 -14z
m1089 -154 c8 -8 23 -15 32 -15 9 0 17 -4 17 -9 0 -5 8 -7 18 -4 12 3 25 -4
36 -22 9 -14 21 -23 27 -20 5 4 22 -3 38 -14 16 -12 36 -21 45 -21 9 0 21 -9
28 -19 6 -10 17 -17 24 -14 20 8 122 -27 128 -44 7 -16 -12 -36 -25 -27 -4 2
-10 0 -14 -6 -10 -16 -102 -60 -125 -60 -29 0 -60 -17 -90 -49 -44 -49 -86
-63 -93 -33 -2 10 -3 8 -2 -5 3 -28 -2 -34 -51 -60 -43 -24 -108 -31 -119 -13
-3 5 -16 9 -28 9 -28 -2 -109 10 -115 16 -3 2 7 9 22 14 32 13 33 32 5 49 -20
13 -21 12 -15 -12 8 -31 -9 -34 -54 -11 -16 8 -50 17 -75 20 -25 2 -50 7 -55
10 -6 4 -18 8 -27 9 -10 2 -35 6 -55 10 -21 4 -38 10 -38 15 0 18 99 96 155
122 34 15 67 35 74 43 7 9 17 13 22 10 5 -3 9 2 9 10 0 10 26 28 68 46 37 17
82 47 100 67 31 33 36 35 75 29 23 -4 49 -13 58 -21z m-2795 -70 c23 -8 81
-17 130 -21 49 -3 92 -8 96 -11 4 -2 -9 -18 -30 -36 -20 -18 -39 -35 -42 -38
-3 -4 -15 -9 -27 -13 -13 -4 -23 -12 -23 -17 0 -5 -9 -9 -20 -9 -11 0 -25 -11
-32 -25 -7 -13 -35 -38 -61 -55 -26 -16 -47 -34 -47 -39 0 -5 -15 -14 -32 -20
-45 -15 -132 0 -161 27 -12 11 -42 25 -66 31 -61 13 -77 32 -62 68 12 28 60
63 88 63 8 0 29 12 47 26 102 84 156 99 242 69z m-1955 -81 c30 -9 72 -22 94
-30 23 -8 50 -14 60 -14 11 0 29 -7 39 -15 11 -8 32 -15 48 -15 15 0 65 -14
110 -30 46 -17 115 -35 153 -41 72 -11 135 -35 135 -50 0 -15 -103 -109 -150
-136 -25 -15 -56 -36 -70 -49 -14 -12 -43 -31 -65 -42 -22 -11 -67 -41 -99
-66 -65 -50 -72 -52 -100 -31 -11 8 -27 15 -37 15 -9 0 -28 9 -42 20 -14 11
-40 22 -58 24 -18 1 -37 10 -43 18 -6 8 -22 19 -36 23 -14 4 -48 18 -77 31
-28 13 -58 24 -66 24 -8 0 -40 9 -72 20 -32 11 -102 27 -154 36 -53 9 -104 21
-113 26 -24 12 -23 29 2 35 12 3 30 23 41 44 16 31 24 38 42 35 32 -6 93 17
122 46 28 28 49 39 129 64 32 10 64 24 71 30 9 9 15 10 23 2 7 -7 15 -2 27 16
20 31 18 30 86 10z m-2640 -46 c24 -12 55 -35 70 -51 24 -25 30 -27 50 -17 22
13 38 1 39 -27 0 -10 6 -10 26 -1 24 11 29 10 42 -10 8 -12 21 -22 28 -22 8 0
14 -5 14 -11 0 -7 8 -18 18 -25 15 -12 15 -15 2 -25 -12 -9 -11 -10 5 -4 40
14 99 15 114 1 9 -7 33 -19 53 -25 58 -19 116 -50 94 -51 -43 0 -6 -9 67 -15
46 -4 91 -13 110 -24 18 -11 50 -22 72 -26 84 -14 114 -25 121 -47 6 -19 8
-19 15 -5 6 9 16 14 25 10 13 -5 13 -8 -2 -24 -9 -11 -22 -19 -28 -19 -7 0
-29 -9 -50 -20 -46 -23 -97 -19 -140 12 -25 18 -31 19 -53 7 -22 -12 -26 -11
-34 4 -8 13 -23 17 -63 17 -29 0 -72 6 -97 14 -24 7 -91 26 -149 41 -58 15
-113 31 -122 36 -10 5 -31 9 -48 9 -16 0 -30 4 -30 8 0 5 -14 7 -31 4 -17 -2
-64 1 -105 8 -42 6 -95 12 -120 12 -47 0 -73 21 -75 63 -1 13 -4 10 -8 -10 -8
-40 -52 -52 -134 -37 -34 6 -100 14 -147 18 -47 3 -88 8 -92 11 -15 8 -8 23
10 23 9 0 38 11 63 25 26 13 75 34 110 46 35 12 87 35 116 51 46 25 57 28 88
19 31 -8 35 -7 35 9 0 17 70 70 92 70 4 0 26 -10 49 -22z m5402 -88 c14 -11
34 -20 45 -20 24 0 131 -46 153 -66 24 -22 91 -54 111 -54 9 0 19 -4 23 -9 3
-5 22 -15 43 -22 20 -7 52 -18 70 -26 l33 -14 -32 -37 c-57 -67 -100 -85 -193
-85 -53 1 -102 8 -141 21 -80 27 -111 33 -170 33 -28 0 -84 6 -125 14 -41 7
-96 16 -122 20 -34 4 -48 11 -48 21 0 20 54 74 73 74 8 0 29 16 48 35 19 19
39 35 45 35 5 0 23 14 40 31 29 30 89 68 110 69 6 0 23 -9 37 -20z m-1532
-263 c35 -17 111 -47 167 -66 56 -19 102 -38 102 -42 0 -5 -12 -16 -27 -26
-16 -10 -36 -28 -46 -41 -26 -31 -185 -185 -202 -195 -25 -14 -81 -11 -104 5
-16 11 -31 14 -51 8 -18 -5 -38 -3 -60 8 -27 13 -33 13 -40 2 -7 -12 -12 -11
-29 4 -12 11 -62 29 -113 40 l-92 22 43 47 c29 31 54 49 77 53 37 7 51 19 34
29 -18 11 -11 25 14 25 13 0 29 7 36 15 7 8 18 15 26 15 7 0 19 6 26 13 28 26
114 94 133 105 29 16 34 15 106 -21z m2668 -108 c36 -6 92 -23 123 -38 31 -15
56 -24 55 -21 -5 13 15 12 105 -10 82 -19 96 -25 86 -37 -19 -24 -101 -61
-126 -57 -19 3 -22 1 -16 -21 4 -16 2 -25 -6 -25 -6 0 -18 -7 -26 -15 -18 -17
-40 -11 -154 44 -25 11 -50 21 -56 21 -6 0 -17 6 -23 14 -7 8 -21 12 -31 9
-12 -3 -22 1 -26 10 -3 10 -15 14 -33 11 -20 -3 -30 0 -34 11 -4 8 -15 15 -25
15 -10 0 -26 6 -37 13 -17 13 -16 15 16 40 19 14 57 30 84 35 28 5 52 10 54
11 2 0 34 -4 70 -10z m-4885 -115 c16 -8 40 -14 53 -14 13 0 34 -5 46 -12 12
-7 45 -13 72 -13 58 -2 339 -31 384 -40 94 -20 228 -62 249 -78 16 -13 15 -27
-2 -27 -8 0 -27 -15 -42 -32 -17 -21 -29 -28 -31 -20 -7 20 -52 38 -138 57
-44 9 -93 20 -110 25 -16 5 -57 11 -90 15 -33 3 -80 10 -105 16 -25 5 -79 14
-121 19 -43 4 -91 16 -108 24 -17 9 -65 21 -106 26 -111 14 -138 33 -92 65 25
18 92 13 141 -11z m3072 -100 c27 -14 61 -26 76 -25 15 1 46 -5 70 -13 24 -8
66 -14 94 -13 36 1 55 -3 68 -15 11 -11 32 -17 60 -16 24 0 51 -4 61 -9 10 -6
37 -8 60 -5 43 4 115 -13 115 -28 0 -4 -17 -17 -37 -27 -29 -15 -42 -30 -54
-64 -12 -32 -48 -76 -137 -166 -66 -68 -123 -123 -127 -123 -3 0 -16 5 -27 11
-12 6 -47 11 -79 10 -40 -1 -62 4 -73 14 -10 11 -40 17 -88 20 -112 6 -139 12
-269 55 -139 47 -209 78 -209 93 0 6 31 42 70 80 54 54 74 68 90 64 16 -4 20
-2 16 9 -6 16 20 45 84 94 25 19 51 43 59 53 10 14 23 18 47 15 19 -2 34 0 34
4 0 16 48 7 96 -18z m1166 -175 c6 -19 111 -47 193 -52 72 -5 162 -29 205 -56
12 -8 11 -13 -5 -31 -11 -12 -32 -28 -47 -36 -21 -11 -28 -22 -28 -44 0 -24
-6 -32 -32 -43 -22 -9 -35 -10 -40 -4 -12 19 -85 -39 -93 -73 -7 -34 -16 -37
-39 -14 -15 14 -17 14 -22 -3 -14 -43 -24 -63 -34 -63 -5 0 -10 9 -10 20 0 26
-8 25 -69 -6 -43 -21 -51 -29 -51 -53 0 -36 -10 -45 -25 -24 -12 16 -16 16
-71 -1 -37 -12 -71 -31 -93 -53 -20 -20 -37 -30 -41 -24 -3 6 -35 13 -71 17
-100 8 -109 12 -109 37 0 22 22 51 101 132 81 83 150 157 176 188 13 15 30 27
38 27 8 0 15 4 15 10 0 5 -6 7 -13 4 -7 -2 -28 -6 -47 -8 -19 -2 -43 -7 -52
-11 -10 -4 -18 -3 -18 3 0 19 27 32 81 38 76 8 119 33 154 87 31 47 41 55 47
36z m-2926 -104 c10 -8 29 -15 42 -15 13 0 33 -11 45 -24 18 -20 25 -22 53
-14 33 9 133 -10 178 -34 17 -9 41 -12 164 -17 29 -1 32 -4 32 -31 0 -48 -65
-78 -132 -60 -18 5 -49 12 -68 15 -136 25 -177 33 -192 40 -12 5 -20 2 -24 -9
-8 -21 -21 -20 -27 3 -3 14 -18 20 -60 25 -69 9 -121 41 -125 79 -3 20 1 27
15 27 10 0 27 7 37 15 11 8 25 15 31 15 6 0 20 -7 31 -15z m999 -306 c10 -14
1 -21 -19 -13 -9 3 -13 10 -10 15 7 12 21 11 29 -2z"/>
<path d="M13630 21210 c-18 -14 -21 -20 -9 -20 9 0 24 9 34 20 23 26 8 26 -25
0z"/>
<path d="M13565 21200 c3 -5 8 -10 11 -10 2 0 4 5 4 10 0 6 -5 10 -11 10 -5 0
-7 -4 -4 -10z"/>
<path d="M13440 21125 c0 -15 4 -24 10 -20 6 3 10 12 10 20 0 8 -4 17 -10 20
-6 4 -10 -5 -10 -20z"/>
<path d="M12985 21130 c3 -5 11 -10 16 -10 6 0 7 5 4 10 -3 6 -11 10 -16 10
-6 0 -7 -4 -4 -10z"/>
<path d="M13300 21106 c0 -8 5 -18 10 -21 6 -3 10 1 10 9 0 8 -4 18 -10 21 -5
3 -10 -1 -10 -9z"/>
<path d="M13400 21095 c0 -8 2 -15 4 -15 2 0 6 7 10 15 3 8 1 15 -4 15 -6 0
-10 -7 -10 -15z"/>
<path d="M13565 21080 c-3 -5 -2 -10 4 -10 5 0 13 5 16 10 3 6 2 10 -4 10 -5
0 -13 -4 -16 -10z"/>
<path d="M13280 21040 c0 -5 5 -10 10 -10 6 0 10 5 10 10 0 6 -4 10 -10 10 -5
0 -10 -4 -10 -10z"/>
<path d="M13458 21043 c6 -2 18 -2 25 0 6 3 1 5 -13 5 -14 0 -19 -2 -12 -5z"/>
<path d="M12915 20961 c-3 -5 -1 -12 5 -16 5 -3 10 1 10 9 0 18 -6 21 -15 7z"/>
<path d="M13150 20936 c0 -2 7 -7 16 -10 8 -3 12 -2 9 4 -6 10 -25 14 -25 6z"/>
<path d="M12931 20890 c0 -8 4 -24 9 -35 5 -13 9 -14 9 -5 0 8 -4 24 -9 35 -5
13 -9 14 -9 5z"/>
<path d="M13287 20873 c9 -24 33 -48 33 -33 0 17 -20 50 -30 50 -5 0 -6 -8 -3
-17z"/>
<path d="M12651 20844 c0 -11 3 -14 6 -6 3 7 2 16 -1 19 -3 4 -6 -2 -5 -13z"/>
<path d="M12177 20844 c-8 -8 3 -34 14 -34 11 0 12 27 0 34 -4 3 -11 3 -14 0z"/>
<path d="M12970 20750 c-8 -38 -8 -50 -1 -50 17 0 22 19 12 37 -6 10 -11 16
-11 13z"/>
<path d="M12440 20685 c0 -2 11 -21 25 -41 28 -41 34 -30 10 16 -13 25 -35 41
-35 25z"/>
<path d="M11800 20446 c0 -14 5 -28 10 -31 6 -3 10 5 10 19 0 14 -4 28 -10 31
-6 3 -10 -5 -10 -19z"/>
<path d="M8130 19139 c0 -5 5 -7 10 -4 6 3 10 8 10 11 0 2 -4 4 -10 4 -5 0
-10 -5 -10 -11z"/>
<path d="M8000 17855 c0 -8 5 -15 10 -15 6 0 10 7 10 15 0 8 -4 15 -10 15 -5
0 -10 -7 -10 -15z"/>
<path d="M8165 17810 c3 -5 14 -10 23 -10 15 0 15 2 2 10 -20 13 -33 13 -25 0z"/>
<path d="M8010 17801 c0 -5 5 -13 10 -16 6 -3 10 -2 10 4 0 5 -4 13 -10 16 -5
3 -10 2 -10 -4z"/>
<path d="M8184 17492 c3 -6 -2 -15 -11 -21 -16 -9 -16 -10 5 -11 23 0 31 24
10 36 -6 4 -8 3 -4 -4z"/>
<path d="M8190 17402 c6 -13 14 -21 18 -18 3 4 -2 14 -12 24 -18 16 -18 16 -6
-6z"/>
<path d="M8126 17144 c-9 -24 -7 -54 4 -54 6 0 10 16 10 35 0 38 -4 44 -14 19z"/>
<path d="M8190 17001 c0 -5 5 -13 10 -16 6 -3 10 -2 10 4 0 5 -4 13 -10 16 -5
3 -10 2 -10 -4z"/>
<path d="M8110 16850 c0 -5 5 -10 10 -10 6 0 10 5 10 10 0 6 -4 10 -10 10 -5
0 -10 -4 -10 -10z"/>
<path d="M7997 15669 c7 -7 15 -10 18 -7 3 3 -2 9 -12 12 -14 6 -15 5 -6 -5z"/>
<path d="M7990 15590 c0 -5 5 -10 11 -10 5 0 7 5 4 10 -3 6 -8 10 -11 10 -2 0
-4 -4 -4 -10z"/>
<path d="M8120 15230 c0 -11 2 -20 4 -20 2 0 6 9 9 20 3 11 1 20 -4 20 -5 0
-9 -9 -9 -20z"/>
<path d="M12244 20029 c-3 -6 -2 -15 4 -21 7 -7 14 -3 21 11 10 17 9 21 -3 21
-8 0 -18 -5 -22 -11z"/>
<path d="M11517 19117 c-45 -11 -55 -27 -17 -27 21 0 70 23 70 33 0 4 -1 7 -2
6 -2 0 -25 -6 -51 -12z"/>
<path d="M12360 18480 c0 -5 5 -10 10 -10 6 0 10 5 10 10 0 6 -4 10 -10 10 -5
0 -10 -4 -10 -10z"/>
<path d="M10140 17539 c0 -5 5 -7 10 -4 6 3 10 8 10 11 0 2 -4 4 -10 4 -5 0
-10 -5 -10 -11z"/>
<path d="M13505 20090 c3 -5 11 -10 16 -10 6 0 7 5 4 10 -3 6 -11 10 -16 10
-6 0 -7 -4 -4 -10z"/>
<path d="M13497 20033 c-10 -9 5 -33 19 -33 18 0 18 26 0 33 -8 3 -16 3 -19 0z"/>
<path d="M13397 19684 c-9 -10 4 -34 19 -34 7 0 22 -10 34 -22 14 -15 20 -18
20 -7 0 8 -9 20 -20 27 -11 7 -20 19 -20 27 0 15 -21 21 -33 9z"/>
<path d="M13420 19590 c0 -5 5 -10 11 -10 5 0 7 5 4 10 -3 6 -8 10 -11 10 -2
0 -4 -4 -4 -10z"/>
<path d="M13460 19570 c0 -13 7 -20 19 -20 28 0 35 17 12 29 -27 15 -31 14
-31 -9z"/>
<path d="M13420 19536 c0 -3 9 -10 20 -16 11 -6 20 -8 20 -6 0 3 -9 10 -20 16
-11 6 -20 8 -20 6z"/>
<path d="M13440 19305 c-7 -9 -8 -15 -2 -15 5 0 12 7 16 15 3 8 4 15 2 15 -2
0 -9 -7 -16 -15z"/>
<path d="M13336 19291 c-4 -7 -5 -15 -2 -18 9 -9 19 4 14 18 -4 11 -6 11 -12
0z"/>
<path d="M13311 19186 c12 -10 60 -16 54 -6 -3 5 -18 10 -32 10 -15 0 -24 -2
-22 -4z"/>
<path d="M13400 18885 c0 -29 11 -37 27 -20 8 9 7 16 -8 28 -18 16 -19 15 -19
-8z"/>
<path d="M13283 18856 c1 -16 9 -32 17 -34 12 -4 13 -2 4 9 -7 8 -14 23 -17
34 -4 13 -5 9 -4 -9z"/>
<path d="M13250 18766 c0 -2 8 -10 18 -17 15 -13 16 -12 3 4 -13 16 -21 21
-21 13z"/>
<path d="M13340 18761 c0 -5 7 -12 16 -15 14 -5 15 -4 4 9 -14 17 -20 19 -20
6z"/>
<path d="M13220 18636 c0 -2 7 -7 16 -10 8 -3 12 -2 9 4 -6 10 -25 14 -25 6z"/>
<path d="M13350 18589 c0 -5 5 -7 10 -4 6 3 10 8 10 11 0 2 -4 4 -10 4 -5 0
-10 -5 -10 -11z"/>
<path d="M13198 18551 c-13 -15 -14 -21 -3 -24 15 -6 35 11 35 30 0 19 -13 16
-32 -6z"/>
<path d="M13250 18511 c0 -5 7 -15 17 -22 15 -13 15 -12 4 9 -12 23 -21 28
-21 13z"/>
<path d="M13330 18450 c0 -5 5 -10 11 -10 5 0 7 5 4 10 -3 6 -8 10 -11 10 -2
0 -4 -4 -4 -10z"/>
<path d="M13190 18384 c0 -14 4 -23 9 -20 5 3 7 15 4 26 -7 28 -13 25 -13 -6z"/>
<path d="M13230 18293 c0 -12 50 -57 55 -51 7 7 -34 58 -46 58 -5 0 -9 -3 -9
-7z"/>
<path d="M13221 18224 c0 -11 3 -14 6 -6 3 7 2 16 -1 19 -3 4 -6 -2 -5 -13z"/>
<path d="M13280 18000 c0 -5 7 -10 16 -10 8 0 12 5 9 10 -3 6 -10 10 -16 10
-5 0 -9 -4 -9 -10z"/>
<path d="M14120 14680 c-9 -6 -10 -10 -3 -10 6 0 15 5 18 10 8 12 4 12 -15 0z"/>
<path d="M14987 14766 c-4 -10 -1 -13 8 -9 8 3 12 9 9 14 -7 12 -11 11 -17 -5z"/>
<path d="M16611 14631 c-14 -25 -14 -41 -1 -21 9 13 11 13 20 0 8 -12 10 -11
10 7 0 30 -17 38 -29 14z"/>
<path d="M16071 14391 c-9 -15 -7 -20 11 -24 15 -4 18 -3 10 5 -6 6 -8 17 -5
24 8 21 -5 17 -16 -5z"/>
<path d="M17780 14460 c8 -5 15 -14 15 -20 0 -5 3 -10 8 -10 4 0 9 0 12 0 3 0
1 9 -5 20 -6 11 -18 20 -28 20 -15 0 -15 -2 -2 -10z"/>
<path d="M17300 14430 c0 -19 11 -26 23 -14 8 8 -3 34 -14 34 -5 0 -9 -9 -9
-20z"/>
<path d="M17581 14400 c14 -31 19 -36 19 -24 0 6 -7 19 -16 30 -14 18 -14 18
-3 -6z"/>
<path d="M17811 14374 c0 -11 3 -14 6 -6 3 7 2 16 -1 19 -3 4 -6 -2 -5 -13z"/>
<path d="M17685 14240 c3 -5 8 -10 11 -10 2 0 4 5 4 10 0 6 -5 10 -11 10 -5 0
-7 -4 -4 -10z"/>
<path d="M17030 14226 c0 -3 9 -10 20 -16 11 -6 20 -8 20 -6 0 3 -9 10 -20 16
-11 6 -20 8 -20 6z"/>
<path d="M17580 14199 c0 -5 5 -7 10 -4 6 3 10 8 10 11 0 2 -4 4 -10 4 -5 0
-10 -5 -10 -11z"/>
<path d="M17036 14182 c-4 -7 -3 -19 2 -28 12 -21 22 -5 12 20 -4 13 -9 16
-14 8z"/>
<path d="M17435 14150 c-3 -5 1 -10 10 -10 9 0 13 5 10 10 -3 6 -8 10 -10 10
-2 0 -7 -4 -10 -10z"/>
<path d="M16735 14080 c-3 -5 -1 -10 4 -10 6 0 11 5 11 10 0 6 -2 10 -4 10 -3
0 -8 -4 -11 -10z"/>
<path d="M17340 14045 c0 -8 4 -15 10 -15 5 0 7 7 4 15 -4 8 -8 15 -10 15 -2
0 -4 -7 -4 -15z"/>
<path d="M16802 14010 c0 -14 2 -19 5 -12 2 6 2 18 0 25 -3 6 -5 1 -5 -13z"/>
<path d="M17040 13982 c0 -12 4 -22 9 -22 10 0 9 26 -2 36 -4 4 -7 -2 -7 -14z"/>
<path d="M16857 13960 c3 -11 9 -17 15 -14 5 3 4 12 -3 20 -16 19 -18 18 -12
-6z"/>
<path d="M17277 13961 c-2 -10 -1 -25 4 -32 6 -10 9 -4 9 19 0 36 -5 42 -13
13z"/>
<path d="M17048 13905 c2 -14 8 -23 12 -20 10 6 1 45 -10 45 -4 0 -5 -11 -2
-25z"/>
<path d="M17195 13910 c-3 -5 -1 -10 4 -10 6 0 11 5 11 10 0 6 -2 10 -4 10 -3
0 -8 -4 -11 -10z"/>
<path d="M16961 13774 c0 -11 3 -14 6 -6 3 7 2 16 -1 19 -3 4 -6 -2 -5 -13z"/>
<path d="M11518 14193 c7 -3 16 -2 19 1 4 3 -2 6 -13 5 -11 0 -14 -3 -6 -6z"/>
<path d="M11212 14179 c2 -7 10 -15 17 -17 8 -3 12 1 9 9 -2 7 -10 15 -17 17
-8 3 -12 -1 -9 -9z"/>
<path d="M11476 14115 c-3 -9 -6 -22 -5 -28 0 -7 5 -1 10 12 5 13 8 26 5 28
-2 2 -6 -3 -10 -12z"/>
<path d="M11240 14080 c20 -13 33 -13 25 0 -3 6 -14 10 -23 10 -15 0 -15 -2
-2 -10z"/>
<path d="M14994 13790 c-4 -18 -13 -30 -23 -30 -13 -1 -13 -3 3 -15 27 -21 35
-19 34 8 -2 39 2 47 18 47 8 0 12 5 9 10 -13 20 -36 9 -41 -20z"/>
<path d="M15227 13759 c4 -13 8 -18 11 -10 2 7 -1 18 -6 23 -8 8 -9 4 -5 -13z"/>
<path d="M15097 13700 c3 -11 12 -20 20 -20 11 0 11 4 3 20 -6 11 -15 20 -19
20 -5 0 -7 -9 -4 -20z"/>
<path d="M15310 13665 c0 -8 2 -15 4 -15 2 0 6 7 10 15 3 8 1 15 -4 15 -6 0
-10 -7 -10 -15z"/>
<path d="M16225 13670 c3 -5 8 -10 11 -10 2 0 4 5 4 10 0 6 -5 10 -11 10 -5 0
-7 -4 -4 -10z"/>
<path d="M16300 13639 c0 -5 5 -7 10 -4 6 3 10 8 10 11 0 2 -4 4 -10 4 -5 0
-10 -5 -10 -11z"/>
<path d="M16360 13540 c0 -5 5 -10 11 -10 5 0 7 5 4 10 -3 6 -8 10 -11 10 -2
0 -4 -4 -4 -10z"/>
<path d="M16044 13429 c0 -10 4 -19 8 -19 4 0 8 6 8 14 0 8 -4 17 -8 20 -4 2
-8 -4 -8 -15z"/>
<path d="M16200 13316 c0 -9 5 -16 10 -16 6 0 10 4 10 9 0 6 -4 13 -10 16 -5
3 -10 -1 -10 -9z"/>
<path d="M8685 13360 c3 -5 8 -10 11 -10 2 0 4 5 4 10 0 6 -5 10 -11 10 -5 0
-7 -4 -4 -10z"/>
<path d="M8595 13339 c-4 -6 -5 -12 -2 -15 2 -3 7 2 10 11 7 17 1 20 -8 4z"/>
<path d="M8970 13270 c0 -19 3 -21 12 -12 9 9 9 15 0 24 -9 9 -12 7 -12 -12z"/>
<path d="M8865 13250 c4 -6 11 -8 16 -5 14 9 11 15 -7 15 -8 0 -12 -5 -9 -10z"/>
<path d="M9356 13242 c-7 -11 4 -52 13 -52 4 0 6 14 3 30 -4 31 -7 35 -16 22z"/>
<path d="M9542 13172 c2 -21 8 -26 23 -24 36 6 37 19 5 35 l-31 16 3 -27z"/>
<path d="M9435 13150 c-3 -5 -1 -10 4 -10 6 0 11 5 11 10 0 6 -2 10 -4 10 -3
0 -8 -4 -11 -10z"/>
<path d="M9656 13105 c-3 -8 -1 -15 3 -15 5 0 11 7 15 15 3 8 1 15 -3 15 -5 0
-11 -7 -15 -15z"/>
<path d="M14635 13170 c-10 -11 -13 -20 -8 -20 13 0 38 29 31 35 -3 3 -13 -4
-23 -15z"/>
<path d="M15546 12982 c-3 -6 -1 -14 5 -17 15 -10 25 3 12 16 -7 7 -13 7 -17
1z"/>
<path d="M15480 12909 c0 -5 5 -7 10 -4 6 3 10 8 10 11 0 2 -4 4 -10 4 -5 0
-10 -5 -10 -11z"/>
<path d="M10925 20930 c-3 -5 -2 -10 4 -10 5 0 13 5 16 10 3 6 2 10 -4 10 -5
0 -13 -4 -16 -10z"/>
<path d="M10864 20920 c-24 -9 -41 -30 -26 -30 6 0 20 9 33 20 26 21 25 23 -7
10z"/>
<path d="M10958 20903 c7 -3 16 -2 19 1 4 3 -2 6 -13 5 -11 0 -14 -3 -6 -6z"/>
<path d="M15880 20830 c0 -5 5 -10 10 -10 6 0 10 5 10 10 0 6 -4 10 -10 10 -5
0 -10 -4 -10 -10z"/>
<path d="M10558 20823 c6 -2 18 -2 25 0 6 3 1 5 -13 5 -14 0 -19 -2 -12 -5z"/>
<path d="M15774 20816 c-17 -8 -61 -24 -98 -36 -50 -17 -66 -27 -66 -41 0 -20
-15 -25 -25 -9 -8 13 -62 13 -70 0 -7 -12 12 -50 25 -50 6 0 10 7 10 16 0 13
7 15 35 11 30 -5 35 -3 35 14 0 16 7 19 49 19 37 0 50 -4 55 -17 6 -15 10 -13
30 12 13 16 39 34 57 40 42 14 55 55 17 55 -13 -1 -37 -7 -54 -14z"/>
<path d="M15456 20702 c-2 -4 7 -12 20 -19 13 -6 24 -7 24 -2 0 12 -38 31 -44
21z"/>
<path d="M9635 20480 c3 -5 8 -10 11 -10 2 0 4 5 4 10 0 6 -5 10 -11 10 -5 0
-7 -4 -4 -10z"/>
<path d="M9346 20341 c-4 -5 -2 -12 3 -15 5 -4 12 -2 15 3 4 5 2 12 -3 15 -5
4 -12 2 -15 -3z"/>
<path d="M34110 20089 c0 -5 5 -7 10 -4 6 3 10 8 10 11 0 2 -4 4 -10 4 -5 0
-10 -5 -10 -11z"/>
<path d="M29280 19679 c0 -5 5 -7 10 -4 6 3 10 8 10 11 0 2 -4 4 -10 4 -5 0
-10 -5 -10 -11z"/>
<path d="M30235 19630 c3 -5 16 -10 28 -9 21 0 21 1 2 9 -28 12 -37 12 -30 0z"/>
<path d="M34764 18286 c-18 -14 -18 -15 -1 -22 22 -8 46 11 31 26 -7 7 -17 5
-30 -4z"/>
<path d="M28935 15790 c3 -5 13 -10 21 -10 8 0 14 5 14 10 0 6 -9 10 -21 10
-11 0 -17 -4 -14 -10z"/>
<path d="M7568 13849 c-10 -5 -23 -19 -28 -30 -10 -18 -9 -19 17 -13 37 9 47
19 37 37 -7 11 -14 13 -26 6z"/>
<path d="M29275 13150 c3 -5 8 -10 11 -10 2 0 4 5 4 10 0 6 -5 10 -11 10 -5 0
-7 -4 -4 -10z"/>
<path d="M15660 12382 c0 -5 7 -13 16 -16 10 -4 14 -1 12 6 -5 15 -28 23 -28
10z"/>
<path d="M33817 9944 c6 -15 23 -19 23 -5 0 5 -7 11 -14 14 -10 4 -13 1 -9 -9z"/>
<path d="M34650 9120 c0 -5 5 -10 10 -10 6 0 10 5 10 10 0 6 -4 10 -10 10 -5
0 -10 -4 -10 -10z"/>
<path d="M9400 8690 c-9 -6 -10 -10 -3 -10 6 0 15 5 18 10 8 12 4 12 -15 0z"/>
<path d="M17405 5580 c-4 -6 -3 -16 3 -22 6 -6 12 -6 17 2 4 6 3 16 -3 22 -6
6 -12 6 -17 -2z"/>
<path d="M27960 1408 c-19 -6 -68 -19 -108 -31 -53 -14 -69 -23 -58 -29 32
-18 97 -20 154 -3 76 22 87 29 87 51 0 23 -25 27 -75 12z"/>
</g>
</svg>
